<svg xmlns="http://www.w3.org/2000/svg" viewBox="0 0 397.98 447.77"><g id="Warstwa_2" data-name="Warstwa 2"><g id="Warstwa_1-2" data-name="Warstwa 1"><g id="surface1"><path d="M296.64,0a50.56,50.56,0,1,0,50.68,50.55A50.69,50.69,0,0,0,296.64,0Zm0,14.45a36.11,36.11,0,1,1-36.15,36.1A36,36,0,0,1,296.64,14.45ZM130.05,88.7a29,29,0,0,0-20.46,8.46L55.75,150.93c-9.16,9.14-11,24.15-2.49,34.56a25.56,25.56,0,0,0,37.56,1.94l44.29-44.23,47,4.46-36.8,54.59a57.7,57.7,0,0,0-8.06,46.37L100.63,296.1H30.2C14.82,296.1.89,307.61,0,323.44A29.06,29.06,0,0,0,29,353.88h91a29,29,0,0,0,22.44-10.64l37.13-45.44,37.57,30.52v90.56a28.94,28.94,0,0,0,57.88,0V305.5a28.94,28.94,0,0,0-9.18-21.11l-40.79-38,30.86-45.82,29.34,29.31a29,29,0,0,0,20.47,8.47h66c12.92,0,24.88-9.31,26.23-22.69a25.49,25.49,0,0,0-25.21-27.87H319.87l-34.42-35.06a36.13,36.13,0,0,0-14.67-39L246.3,97.3A50.9,50.9,0,0,0,218,88.7Zm0,14.44h88a36.28,36.28,0,0,1,20.21,6.15l24.45,16.45a21.54,21.54,0,0,1,5.93,30.07l-62.49,92.7L255.89,295a14.38,14.38,0,0,1,4.6,10.53V418.88a14.47,14.47,0,0,1-28.94,0V321.46l-65.63-53.34a43.21,43.21,0,0,1-8.62-57.78l50.39-74.79-78-7.36-49.1,49a10.76,10.76,0,0,1-16.14-.85c-3.42-4.21-2.71-11,1.5-15.21l53.9-53.77A14.41,14.41,0,0,1,130.05,103.14Zm148.73,63.42,35,35.66h58.87a10.69,10.69,0,0,1,10.8,12c-.54,5.41-5.82,9.7-11.82,9.7h-66a14.45,14.45,0,0,1-10.23-4.23l-31.35-31.28ZM143.65,264.05a57.32,57.32,0,0,0,13.14,15.27l11.51,9.34-37.14,45.47a14.49,14.49,0,0,1-11.22,5.3H29A14.37,14.37,0,0,1,14.48,324.2c.43-7.62,7.58-13.65,15.72-13.65h77.55ZM21.72,397.21A7.22,7.22,0,1,0,29,404.43,7.24,7.24,0,0,0,21.72,397.21Zm28.94,0a7.22,7.22,0,1,0,7.24,7.22A7.24,7.24,0,0,0,50.66,397.21Zm28.94,0a7.22,7.22,0,1,0,7.24,7.22A7.24,7.24,0,0,0,79.6,397.21Zm29,0a7.22,7.22,0,1,0,7.23,7.22A7.24,7.24,0,0,0,108.55,397.21Zm28.94,0a7.22,7.22,0,1,0,7.23,7.22A7.24,7.24,0,0,0,137.49,397.21Zm28.94,0a7.22,7.22,0,1,0,7.23,7.22A7.24,7.24,0,0,0,166.43,397.21Zm28.94,0a7.22,7.22,0,1,0,7.24,7.22A7.24,7.24,0,0,0,195.37,397.21Zm101.3,0a7.22,7.22,0,1,0,7.24,7.22A7.24,7.24,0,0,0,296.67,397.21Zm28.94,0a7.22,7.22,0,1,0,7.24,7.22A7.24,7.24,0,0,0,325.61,397.21Zm28.94,0a7.22,7.22,0,1,0,7.24,7.22A7.24,7.24,0,0,0,354.55,397.21Zm28.95,0a7.22,7.22,0,1,0,7.23,7.22A7.24,7.24,0,0,0,383.5,397.21Z"/></g></g></g></svg>