<svg xmlns="http://www.w3.org/2000/svg" viewBox="0 0 385.56 474.64"><g id="Warstwa_2" data-name="Warstwa 2"><g id="Warstwa_1-2" data-name="Warstwa 1"><path d="M44.57,230.26H193.12a7.43,7.43,0,1,0,0-14.85H44.57a7.43,7.43,0,1,0,0,14.85Z"/><path d="M44.57,267.4H193.12a7.43,7.43,0,1,0,0-14.85H44.57a7.43,7.43,0,1,0,0,14.85Z"/><path d="M44.57,304.54H193.12a7.43,7.43,0,1,0,0-14.85H44.57a7.43,7.43,0,1,0,0,14.85Z"/><path d="M274.83,334.25h-104a7.43,7.43,0,1,0,0,14.86h104a7.43,7.43,0,0,0,0-14.86Z"/><path d="M274.83,371.39h-104a7.43,7.43,0,1,0,0,14.86h104a7.43,7.43,0,0,0,0-14.86Z"/><path d="M274.83,408.53h-104a7.43,7.43,0,1,0,0,14.86h104a7.43,7.43,0,0,0,0-14.86Z"/><path d="M274.83,215.41H230.26a7.43,7.43,0,0,0,0,14.85h44.57a7.43,7.43,0,1,0,0-14.85Z"/><path d="M274.83,252.55H230.26a7.43,7.43,0,0,0,0,14.85h44.57a7.43,7.43,0,1,0,0-14.85Z"/><path d="M274.83,289.69H230.26a7.43,7.43,0,0,0,0,14.85h44.57a7.43,7.43,0,1,0,0-14.85Z"/><path d="M37.14,66.85H13.37A13.31,13.31,0,0,0,0,80.22v381a13.31,13.31,0,0,0,13.37,13.37H305.29a13.32,13.32,0,0,0,13.37-13.37v-23h25.25c5.2,0,11.89-4.46,11.89-15.6V408.53h18.57c3,0,11.14-1.48,11.14-16.34V11.88C386.25,1.49,378.82,0,375.11,0H82.45c-10.4,0-15.6,5.94-15.6,11.88V29.71H52.74c-8.92,0-15.6,5.2-15.6,11.89Zm267.4,393.68H14.86V81.71H304.54ZM81.71,14.86H371.39V393.68H356.54V41.6c0-7.43-4.46-11.89-11.89-11.89H81.71Zm-29,29.71H341.68V423.39H319.4V80.22A13.31,13.31,0,0,0,306,66.85H52l.74-22.28Z"/><path d="M274.83,104H44.57a7,7,0,0,0-7.43,7.43V185.7a7,7,0,0,0,7.43,7.42H274.83a7,7,0,0,0,7.43-7.42V111.42A7,7,0,0,0,274.83,104Zm-7.43,74.28H52V118.85H267.4Z"/><path d="M141.13,334.25H44.57a7,7,0,0,0-7.43,7.43V416a7,7,0,0,0,7.43,7.43h96.56a7,7,0,0,0,7.43-7.43V341.68A7,7,0,0,0,141.13,334.25Zm-7.43,74.28H52V349.11h81.7Z"/></g></g></svg>