<svg xmlns="http://www.w3.org/2000/svg" viewBox="0 0 576.07 402.42"><g id="Warstwa_2" data-name="Warstwa 2"><g id="Warstwa_1-2" data-name="Warstwa 1"><path d="M407.31,147.43A73.72,73.72,0,1,1,481,73.71,73.8,73.8,0,0,1,407.31,147.43Zm0-130.43A56.72,56.72,0,1,0,464,73.71,56.77,56.77,0,0,0,407.31,17Z"/><path d="M497.65,271H147.84a8.5,8.5,0,0,1-6.38-14.12c30.71-34.86,65.09-77.57,67.84-86.67-.29-7.36-6.88-25.48-16.37-34.28l-89.4,82.62a39.15,39.15,0,0,1-53.14-57.5L161.3,58.57c12.72-11.75,33.92-14.38,51.62-6.41,2.05.82,4.24,1.77,6.51,2.83.46.2.91.42,1.36.64,74,35.22,273.68,193.5,282.14,200.22A8.5,8.5,0,0,1,497.65,271Zm-331.2-17H473.06C420.1,212.65,272.53,99.1,213.49,71l-.17-.08c-.25-.12-.5-.25-.76-.36l-.22-.1c-2.08-1-4.07-1.83-5.9-2.56l-.37-.16c-11.32-5.15-25.61-3.72-33.24,3.33L61.93,173.55A22.14,22.14,0,0,0,92,206.07l94.45-87.28a8.51,8.51,0,0,1,9.71-1.29c19.51,10.2,30.16,40.5,30.16,53.2,0,4,0,10.77-36.91,55.93C181.18,236.69,172.9,246.47,166.45,254Z"/><path d="M221.46,347.53c-27.36,0-51.52-11.15-74.88-21.94-21.22-9.8-41.27-19.06-61.82-19.06-41.53,0-67.79,23.18-68.05,23.41a10,10,0,0,1-13.46-14.8c1.28-1.16,31.93-28.61,81.51-28.61,24.94,0,48,10.63,70.21,20.9s43.52,20.1,66.49,20.1c21.52,0,40.14-8.66,59.85-17.83,22.32-10.39,47.62-22.17,80.2-22.17,32.94,0,61.32,11.72,86.35,22.06,21.1,8.71,41,16.94,60.42,16.94,40.07,0,54.41-11.45,54.55-11.56l-.17.14L576.07,330c-1.88,1.7-19.75,16.58-67.79,16.58-23.36,0-45.07-9-68.06-18.46-24.45-10.09-49.73-20.54-78.71-20.54-28.15,0-50.32,10.32-71.76,20.3C268.93,337.52,247.41,347.53,221.46,347.53Z"/><path d="M221.46,402.42c-27.36,0-51.52-11.16-74.88-21.94-21.22-9.8-41.27-19.06-61.82-19.06-41.53,0-67.79,23.17-68.05,23.41A10,10,0,0,1,3.25,370c1.28-1.17,31.93-28.61,81.51-28.61,24.94,0,48,10.62,70.21,20.9s43.52,20.1,66.49,20.1c21.52,0,40.14-8.67,59.85-17.84,22.32-10.39,47.62-22.16,80.2-22.16,32.94,0,61.32,11.71,86.35,22.05,21.1,8.72,41,16.95,60.42,16.95,40.07,0,54.41-11.45,54.55-11.57l-.17.15,13.41,14.84c-1.88,1.7-19.75,16.58-67.79,16.58-23.36,0-45.07-9-68.06-18.46-24.45-10.1-49.73-20.54-78.71-20.54-28.15,0-50.32,10.32-71.76,20.29C268.93,392.4,247.41,402.42,221.46,402.42Z"/></g></g></svg>