<svg xmlns="http://www.w3.org/2000/svg" viewBox="0 0 372.01 627.25"><g id="Warstwa_2" data-name="Warstwa 2"><g id="Warstwa_1-2" data-name="Warstwa 1"><path d="M187,147.43a73.72,73.72,0,1,1,73.71-73.72A73.8,73.8,0,0,1,187,147.43ZM187,17a56.72,56.72,0,1,0,56.71,56.71A56.78,56.78,0,0,0,187,17Z"/><path d="M294.76,626.36c-16.31,0-28.45-12.21-38.51-25.28C246,587.73,193.42,505.74,145,429.94c-12.1-18.92-20.84-32.6-23-35.83-9.79-14.82-23.21-35.12-17.87-62.48,2.8-14.21,8.35-41.93,14.24-70.07L90.3,283.09c-2.8,16.33-14.84,86.3-16.69,95.29a26,26,0,0,1-11.4,16.82,30,30,0,0,1-22.09,4.36c-17.39-3.61-26.27-17.1-23.74-36.08l0-.13,16-108a8.28,8.28,0,0,1,.33-1.37c3.19-9.84,8.6-17,16.54-21.76l74.39-63.34a7.85,7.85,0,0,1,1.36-.94c1.51-.85,3-1.75,4.4-2.62,7-4.31,14.28-8.77,28.53-8.77H185.7c24.88,0,35.52,13.83,47.52,41.05,11.52,26.09,32.72,71.38,38.09,82.82,13.24,6.56,71.78,35.58,81.37,40h0a34.73,34.73,0,0,1,17.86,20.4,27.61,27.61,0,0,1-2,22.38c-7.95,14.06-26.29,16.81-47.86,7.17-10.26-4.59-64.76-29.21-76.21-35.53-8.93-4.93-13.86-7.64-18.31-14.57-2.35-3.65-5.51-8.34-8.6-12.87l-13.66,58.87c15,24.41,110.6,180,119.46,195.07,7.93,13.47,10.66,27.9,7.48,39.58a31.32,31.32,0,0,1-15.41,19.5C307.85,624.58,301,626.36,294.76,626.36Zm-163.31-394a8.49,8.49,0,0,1,8.31,10.28c-7.45,34.67-15.42,74.34-19,92.31-4,20.52,6.29,36.1,15.37,49.83,2.21,3.35,11,17.06,23.12,36,34.86,54.54,99.76,156.05,110.44,169.93,14.7,19.12,23.44,22.57,37.43,14.8a14.25,14.25,0,0,0,7.25-9.11c1.93-7.07-.27-17.22-5.72-26.49-9.33-15.83-120-195.95-121.12-197.77a8.47,8.47,0,0,1-1-6.37l18.79-81a8.5,8.5,0,0,1,15.23-3c.54.76,13.16,18.72,19.89,29.18,2,3.06,3.65,4.15,12.22,8.88,9.43,5.2,56.78,26.77,74.93,34.89,7.75,3.46,22,7.35,26.14,0a10.61,10.61,0,0,0,.65-8.78,17.73,17.73,0,0,0-8.77-10.17h0c-11-5-81.52-40-84.51-41.52a8.54,8.54,0,0,1-3.92-4c-.26-.55-26.24-55.8-39.51-85.87-12.28-27.86-19.5-30.91-32-30.91H158c-9.45,0-13.5,2.49-19.64,6.26-1.34.82-2.73,1.67-4.24,2.54L59.77,245.62a8,8,0,0,1-1.27.89c-4.53,2.61-7.35,6.24-9.35,12.05L33.23,365.78c-1.33,10.09,1.86,15.37,10.35,17.13A13.18,13.18,0,0,0,52.87,381,9.11,9.11,0,0,0,57,375c2-9.71,17-97.14,17.15-98a8.52,8.52,0,0,1,3.2-5.31l49-37.57A8.54,8.54,0,0,1,131.45,232.31Z"/><path d="M32.25,627.25c-5.88,0-12.2-2-18.84-7C3.34,612.63-1.2,602.4.27,590.67c1-8,4.81-16.7,11.64-26.67,12.06-17.57,53.3-77.28,59.56-86.35l22.34-78.44a8.5,8.5,0,0,1,15.06-2.67L153,457.29a8.49,8.49,0,0,1,1.11,7.9C149.8,477,142,498.43,139.88,503.63A98.34,98.34,0,0,1,125,529.07c-4.18,5.26-13,17.18-22.24,29.8-14,19-28.42,38.61-34,44.85l-1.21,1.37C60.56,613,48,627.25,32.25,627.25Zm73.13-206.59-17.94,63a8.82,8.82,0,0,1-1.18,2.5c-.48.68-47.35,68.55-60.33,87.46-13.79,20.13-9.24,27.79-2.27,33.07,10.17,7.69,17.84,2.24,31.19-12.86l1.24-1.4c5-5.66,19.88-25.84,33-43.64C98.46,536,107.32,524,111.7,518.5a81.11,81.11,0,0,0,12.4-21.2c1.58-3.95,7.3-19.46,12.49-33.68ZM79.26,481.33h0Z"/></g></g></svg>