<svg xmlns="http://www.w3.org/2000/svg" viewBox="0 0 604.64 509.18"><g id="Warstwa_2" data-name="Warstwa 2"><g id="Warstwa_1-2" data-name="Warstwa 1"><path d="M302.39,111.21h-.09c-9.89,0-15-5.12-19.06-9.24-3.45-3.47-5.72-5.76-10.77-5.78s-7.32,2.26-10.79,5.71c-4.09,4.07-9.18,9.12-19,9.12h-.09c-9.88,0-15-5.12-19-9.24-3.45-3.45-5.73-5.75-10.77-5.78h-.05c-5,0-7.28,2.28-10.75,5.71-4.08,4.07-9.17,9.12-19,9.12h-.09c-9.88,0-15-5.12-19-9.23-3.45-3.46-5.73-5.76-10.75-5.78h0c-5,0-7.28,2.28-10.75,5.71-4.09,4.06-9.18,9.11-19,9.11h-.1c-9.87,0-15-5.12-19-9.23-3.45-3.46-5.72-5.76-10.75-5.78a5.88,5.88,0,0,1,0-11.75c9.88,0,15,5.12,19,9.23,3.45,3.46,5.73,5.76,10.75,5.78h.05c5,0,7.3-2.27,10.74-5.71,4.09-4.06,9.18-9.11,19-9.11h.09c9.88,0,15,5.12,19,9.23,3.45,3.46,5.73,5.76,10.75,5.78h0c5,0,7.28-2.28,10.75-5.71,4.09-4.06,9.18-9.12,19-9.12h.1c9.87,0,15,5.13,19,9.24,3.45,3.46,5.72,5.76,10.77,5.78h0c5,0,7.28-2.28,10.75-5.71,4.09-4.06,9.18-9.12,19-9.12h.1c9.87,0,15,5.13,19.05,9.24,3.45,3.48,5.73,5.75,10.77,5.78h.05c5,0,7.3-2.28,10.75-5.71,4.08-4.07,9.17-9.12,19-9.12h.1a5.88,5.88,0,0,1,0,11.75h-.07c-5,0-7.29,2.28-10.74,5.71C317.31,106.16,312.22,111.21,302.39,111.21Z"/><path d="M302.39,166h-.09c-9.89,0-15-5.13-19.06-9.24-3.45-3.45-5.72-5.76-10.77-5.78h-.05c-5,0-7.27,2.28-10.74,5.71-4.09,4.07-9.18,9.12-19,9.12h-.09c-9.88,0-15-5.12-19-9.24-3.45-3.45-5.73-5.76-10.77-5.78h-.05c-5,0-7.28,2.28-10.75,5.71-4.08,4.07-9.17,9.12-19,9.12h-.09c-9.88,0-15-5.12-19-9.24-3.45-3.45-5.73-5.75-10.75-5.78h0c-5,0-7.28,2.28-10.75,5.71-4.09,4.07-9.18,9.12-19,9.12h-.1c-9.87,0-15-5.12-19-9.23-3.45-3.46-5.72-5.76-10.75-5.78a5.88,5.88,0,0,1,0-11.75h0c9.88,0,15,5.12,19,9.23,3.45,3.46,5.73,5.76,10.75,5.78h.05c5,0,7.3-2.28,10.74-5.71,4.09-4.06,9.18-9.12,19-9.12h.09c9.88,0,15,5.13,19,9.24,3.45,3.45,5.73,5.76,10.75,5.78h0c5,0,7.28-2.28,10.75-5.71,4.09-4.06,9.18-9.12,19-9.12h.1c9.87,0,15,5.13,19,9.24,3.45,3.45,5.72,5.75,10.77,5.78h0c5,0,7.28-2.28,10.75-5.71,4.09-4.07,9.18-9.12,19-9.12h.1c9.87,0,15,5.12,19.05,9.24,3.45,3.45,5.73,5.75,10.77,5.78s7.32-2.26,10.8-5.71c4.08-4.07,9.17-9.12,19-9.12h.1a5.88,5.88,0,0,1,0,11.75h-.07c-5,0-7.29,2.28-10.74,5.71C317.31,160.93,312.22,166,302.39,166Z"/><rect x="212.42" y="245.13" width="0.42" height="12"/><rect x="391.8" y="203.18" width="12" height="0.32"/><path d="M579.14,203.49H403.8V31.58A31.53,31.53,0,0,0,372.27,0H31.53A31.58,31.58,0,0,0,0,31.57v194a31.58,31.58,0,0,0,31.53,31.56H64c-1.46,21.53-3.14,45.54-3.16,45.8l-.07,1,.25,1C61.33,306,64.29,316.54,73.1,318a12.1,12.1,0,0,0,2,.17c9.2,0,16.43-10.72,19-14.59,1.54-1.91,13.92-15.1,44.13-46.48h74.63v167c0,13.11,11.43,24.55,25.53,24.55H475c19.22,19.95,45.15,47,46.49,49,4.7,7.07,8.53,10.39,11.6,11.54h4.8c4.25-1.84,5.94-8.34,5.94-8.34s-2-29.1-3.59-52.22h38.88a25.54,25.54,0,0,0,25.53-25.57v-194A25.51,25.51,0,0,0,579.14,203.49ZM214.83,245.12H133.1L131.33,247C86.13,293.9,84.71,296,84.17,296.82c-6,9.08-9,9.36-9,9.38-.57-.24-1.64-1.86-2.26-3.56.39-5.58,2.15-30.8,3.51-51.11l.43-6.41H31.53A19.56,19.56,0,0,1,12,225.56v-194A19.57,19.57,0,0,1,31.53,12H372.27A19.51,19.51,0,0,1,391.8,31.57v194a19.56,19.56,0,0,1-19.53,19.56H214.83Zm378.1,177.93a13.83,13.83,0,0,1-13.79,13.82H527.67l.85,12.55c1,14.45,2.13,31.37,2.88,42a2,2,0,0,1-.16-.24c-.92-1.36-2.16-3.24-47.8-50.66l-3.45-3.6H238.37a13.83,13.83,0,0,1-13.8-13.82V257.12h147.7a31.58,31.58,0,0,0,31.53-31.56V215.27H579.14v0a13.82,13.82,0,0,1,13.79,13.82Z"/><path d="M278.48,308.77a5.88,5.88,0,0,1,0-11.75c5.05,0,7.32-2.3,10.77-5.78,4.09-4.09,9.15-9.19,19.06-9.24h.09c9.84,0,14.93,5.06,19,9.12,3.45,3.43,5.75,5.71,10.75,5.71h.05c5,0,7.32-2.3,10.75-5.78,4.08-4.09,9.15-9.19,19-9.23h.09c9.83,0,14.93,5.05,19,9.11,3.45,3.44,5.75,5.71,10.74,5.71h.05c5,0,7.33-2.3,10.75-5.78,4.08-4.08,9.15-9.18,19-9.23s15,5.05,19.08,9.12c3.45,3.43,5.75,5.71,10.75,5.71h.05c5,0,7.32-2.3,10.74-5.78,4.09-4.09,9.16-9.19,19-9.24h.1c9.83,0,14.92,5.05,19,9.12,3.47,3.46,5.75,5.78,10.79,5.71h0a5.88,5.88,0,0,1,0,11.75h-.09c-9.84,0-14.93-5-19-9.12-3.45-3.43-5.75-5.71-10.75-5.71h-.05c-5,0-7.32,2.31-10.74,5.78-4.09,4.09-9.16,9.19-19,9.24h-.09c-9.84,0-14.93-5-19-9.12-3.47-3.45-5.86-5.71-10.79-5.71s-7.3,2.3-10.75,5.78c-4.09,4.09-9.15,9.19-19,9.23h-.09c-9.83,0-14.92-5.05-19-9.11-3.45-3.43-5.75-5.71-10.74-5.71h0c-5,0-7.32,2.3-10.75,5.78-4.08,4.09-9.15,9.18-19,9.23h-.09c-9.84,0-14.93-5.05-19-9.12-3.45-3.43-5.75-5.71-10.75-5.71h-.05c-5,0-7.32,2.31-10.77,5.78C293.45,303.65,288.38,308.75,278.48,308.77Z"/><path d="M278.48,363.57a5.88,5.88,0,0,1,0-11.75c5.05,0,7.32-2.3,10.77-5.78,4.09-4.09,9.15-9.18,19.06-9.23h.09c9.84,0,14.93,5.05,19,9.12,3.48,3.45,5.75,5.61,10.8,5.71s7.32-2.31,10.75-5.78c4.08-4.09,9.15-9.19,19-9.24h.09c9.83,0,14.93,5.05,19,9.12,3.45,3.43,5.75,5.71,10.74,5.71h.05c5,0,7.33-2.31,10.75-5.78,4.08-4.09,9.15-9.19,19-9.24h.1c9.83,0,14.92,5.05,19,9.12,3.45,3.43,5.75,5.71,10.75,5.71h0c5,0,7.32-2.3,10.75-5.78,4.08-4.09,9.15-9.19,19-9.24h.09c9.83,0,14.93,5.06,19,9.12,3.45,3.43,5.75,5.71,10.75,5.71h.07a5.88,5.88,0,0,1,0,11.75h-.09c-9.83,0-14.93-5.05-19-9.12-3.47-3.45-5.68-5.68-10.79-5.71s-7.33,2.31-10.75,5.78c-4.09,4.09-9.15,9.19-19,9.24s-15-5.05-19.08-9.12c-3.45-3.43-5.75-5.71-10.75-5.71h-.05c-5,0-7.29,2.3-10.74,5.78-4.09,4.09-9.16,9.19-19,9.24h-.09c-9.83,0-14.92-5.06-19-9.12-3.45-3.43-5.75-5.71-10.75-5.71h0c-5,0-7.33,2.3-10.75,5.78-4.09,4.09-9.16,9.19-19,9.24h-.1c-9.83,0-14.92-5.06-19-9.12-3.45-3.43-5.75-5.71-10.74-5.71h0c-5.05,0-7.32,2.3-10.77,5.78C293.45,358.43,288.38,363.53,278.48,363.57Z"/></g></g></svg>