<svg xmlns="http://www.w3.org/2000/svg" viewBox="0 0 465.5 466.53"><g id="Warstwa_2" data-name="Warstwa 2"><g id="Warstwa_1-2" data-name="Warstwa 1"><path d="M141.2,224.42C125.86,213.14,107.79,208,107,207.7a4.91,4.91,0,0,0-1.15-.25,5.1,5.1,0,0,0-1.17,0,4.42,4.42,0,0,0-1.13.32,4.31,4.31,0,0,0-1,.59,4.08,4.08,0,0,0-.84.82,4.44,4.44,0,0,0-.62,1,4.57,4.57,0,0,0-.36,1.12,4.66,4.66,0,0,0-.07,1.18v38.93a5,5,0,0,0,.25,1.58,5,5,0,0,0,3.33,3.22,115.89,115.89,0,0,1,31,15c4.3,2.22,7.94-.73,7.94-4V228.44a5,5,0,0,0-.53-2.25A4.77,4.77,0,0,0,141.2,224.42Zm-8,33.68a125.52,125.52,0,0,0-22.56-10.31v-28.3A109.1,109.1,0,0,1,133.24,231Z"/><path d="M104.57,110.23c1.55.35,5.48,1.3,5.9,1.3,5.7.07,6.87-8.4,1.27-9.83-1.64-.43-3.29-.84-5-1.21a5.36,5.36,0,0,0-1-.12,4.49,4.49,0,0,0-1,.08,5.13,5.13,0,0,0-1,.26,5.08,5.08,0,0,0-.87.44,4.89,4.89,0,0,0-.76.6,4.54,4.54,0,0,0-.64.74,4.75,4.75,0,0,0-.48.85,4.15,4.15,0,0,0-.31.92,5.25,5.25,0,0,0-.12,1,4.48,4.48,0,0,0,.07,1,4.62,4.62,0,0,0,.26,1,5,5,0,0,0,.43.87,4.84,4.84,0,0,0,.6.77,4.92,4.92,0,0,0,.73.64,5.93,5.93,0,0,0,.84.49A5.08,5.08,0,0,0,104.57,110.23Z"/><path d="M138.86,122.6c32.16,14.26,55.1,39,55.33,39.28a5.8,5.8,0,0,0,1.63,1,5.92,5.92,0,0,0,3.72.16,5.69,5.69,0,0,0,1.71-.8,4.66,4.66,0,0,0,.68-.72,4.18,4.18,0,0,0,.51-.84,4.23,4.23,0,0,0,.34-.92,5.09,5.09,0,0,0,.09-2,5.13,5.13,0,0,0-.26-.95,4,4,0,0,0-.44-.88,4.2,4.2,0,0,0-.61-.78c-1-1.08-24.51-26.54-58.65-41.68a5,5,0,0,0-.93-.29,4.42,4.42,0,0,0-1-.11,4.7,4.7,0,0,0-1.91.34,5.36,5.36,0,0,0-.86.44,4.54,4.54,0,0,0-.77.6,5.59,5.59,0,0,0-.63.74,4.67,4.67,0,0,0-.48.84,4.42,4.42,0,0,0-.31.93,5.14,5.14,0,0,0-.12,1,4.48,4.48,0,0,0,.07,1,5,5,0,0,0,.25.94,4.44,4.44,0,0,0,.44.87,4,4,0,0,0,.59.77,4.52,4.52,0,0,0,.73.65A5.77,5.77,0,0,0,138.86,122.6Z"/><path d="M104.57,147.14c50.3,11.39,89.3,51.36,89.71,51.74a4.6,4.6,0,0,0,.74.65,5.51,5.51,0,0,0,.85.49,5,5,0,0,0,.93.3,4.13,4.13,0,0,0,1,.12,4.69,4.69,0,0,0,1-.08,4.6,4.6,0,0,0,.94-.28,4.78,4.78,0,0,0,.87-.45,4.57,4.57,0,0,0,.76-.62,7.25,7.25,0,0,0,.62-.75,5,5,0,0,0,.45-.86,4.36,4.36,0,0,0,.29-.93,5.22,5.22,0,0,0,0-1.93,4.83,4.83,0,0,0-.26-.94,4.74,4.74,0,0,0-.42-.88,5.42,5.42,0,0,0-.59-.77c-1.66-1.73-41.41-42.49-94.69-54.56a5.36,5.36,0,0,0-1-.12,4.54,4.54,0,0,0-1,.08,5,5,0,0,0-.94.25,5.56,5.56,0,0,0-.88.44,5,5,0,0,0-.77.61,4.47,4.47,0,0,0-.64.73,5,5,0,0,0-.8,1.79,5.14,5.14,0,0,0-.12,1,6.37,6.37,0,0,0,.07,1,5.13,5.13,0,0,0,.26.95,5.92,5.92,0,0,0,.44.87,4.54,4.54,0,0,0,.6.77,5.74,5.74,0,0,0,.74.65,5.46,5.46,0,0,0,.85.48A5.08,5.08,0,0,0,104.57,147.14Z"/><path d="M106.78,174.29a5.35,5.35,0,0,0-1-.11,4.53,4.53,0,0,0-1,.07,4.37,4.37,0,0,0-.94.26,4.26,4.26,0,0,0-.88.44,4.43,4.43,0,0,0-.77.6,4.54,4.54,0,0,0-.64.74,5.51,5.51,0,0,0-.49.85,6,6,0,0,0-.31.93,5.15,5.15,0,0,0-.12,1,6.33,6.33,0,0,0,.07,1,5.13,5.13,0,0,0,.26,1,5.46,5.46,0,0,0,.44.87,5.05,5.05,0,0,0,.6.78,5,5,0,0,0,.74.64,4.75,4.75,0,0,0,.85.48,5.08,5.08,0,0,0,.93.31c50.3,11.39,89.32,51.34,89.71,51.74a5.74,5.74,0,0,0,3.51,1.29,5.7,5.7,0,0,0,3.55-1.16,4.66,4.66,0,0,0,.66-.74,4.47,4.47,0,0,0,.49-.85,4.42,4.42,0,0,0,.31-.93,4.69,4.69,0,0,0,.12-1,4.58,4.58,0,0,0-.08-1,4.51,4.51,0,0,0-.28-1,4,4,0,0,0-.46-.87,4.54,4.54,0,0,0-.63-.76C199.81,227.13,160.06,186.36,106.78,174.29Z"/><path d="M165.27,236.86a5,5,0,0,0-.9-.37,5.18,5.18,0,0,0-1-.2,5.24,5.24,0,0,0-1,0,5.09,5.09,0,0,0-1,.18,5,5,0,0,0-.9.36,4.91,4.91,0,0,0-.81.53,4.5,4.5,0,0,0-.7.68,6.19,6.19,0,0,0-.55.79,7.75,7.75,0,0,0-.39.89,5.18,5.18,0,0,0-.2.95,4.51,4.51,0,0,0,0,1,4.39,4.39,0,0,0,.17,1,5.28,5.28,0,0,0,.34.91,6,6,0,0,0,.52.82,5.54,5.54,0,0,0,.67.7,5.67,5.67,0,0,0,.79.57c17.79,9.88,33.65,26.84,33.8,27,1,1.06,4.66,2.4,7.07.27a5.57,5.57,0,0,0,.65-.73,4.86,4.86,0,0,0,.5-.85,4.18,4.18,0,0,0,.32-.92,4.63,4.63,0,0,0,.14-1,5.43,5.43,0,0,0-.06-1,5,5,0,0,0-.25-.94,4.82,4.82,0,0,0-.44-.88,4.5,4.5,0,0,0-.6-.78C200.85,265.08,184.47,247.54,165.27,236.86Z"/><path d="M165.26,273.76a5.38,5.38,0,0,0-.89-.37,4.53,4.53,0,0,0-1-.19,4.4,4.4,0,0,0-1,0,5.09,5.09,0,0,0-1,.18,5,5,0,0,0-.9.36,4.91,4.91,0,0,0-.81.53,5,5,0,0,0-.7.68,4.93,4.93,0,0,0-.55.8,4.71,4.71,0,0,0-.39.89,4.34,4.34,0,0,0-.2.95,5.14,5.14,0,0,0,0,1,6,6,0,0,0,.17,1,6.31,6.31,0,0,0,.35.91,5.4,5.4,0,0,0,.52.82,4.44,4.44,0,0,0,.67.7,5,5,0,0,0,.79.57c17.79,9.88,33.65,26.85,33.8,27,1,1.06,4.73,2.39,7.07.26a5.65,5.65,0,0,0,.65-.73,4.8,4.8,0,0,0,.49-.85,4.89,4.89,0,0,0,.33-.93,6.16,6.16,0,0,0,.13-1,5,5,0,0,0-.31-1.93,5.52,5.52,0,0,0-.43-.88,5.05,5.05,0,0,0-.6-.78C200.85,302,184.47,284.44,165.26,273.76Z"/><path d="M462.77,148.86a236.83,236.83,0,0,0-24.62-10.61,5.09,5.09,0,0,0-.95-.24,5.32,5.32,0,0,0-1-.06,5.43,5.43,0,0,0-1,.15,4.57,4.57,0,0,0-.92.32,5.47,5.47,0,0,0-.84.5,5.72,5.72,0,0,0-.73.66,4.39,4.39,0,0,0-.58.78,4.55,4.55,0,0,0-.43.89,5.09,5.09,0,0,0-.24.95,5.32,5.32,0,0,0-.05,1,5.4,5.4,0,0,0,.14,1,5.33,5.33,0,0,0,.33.92,4.77,4.77,0,0,0,.5.84,5,5,0,0,0,.65.73,4.46,4.46,0,0,0,.79.58,6,6,0,0,0,.88.43,225,225,0,0,1,20.76,8.77V411.5c-81-36-158.48-23.46-218.44.2V156.5c3.36-1.5,9.69-4.17,18.39-7.19a4.89,4.89,0,0,0,.91-.39,5.79,5.79,0,0,0,.82-.58,4.64,4.64,0,0,0,.68-.72,5.18,5.18,0,0,0,.53-.84,4.34,4.34,0,0,0,.35-.93,5.43,5.43,0,0,0,.17-1,4.69,4.69,0,0,0,0-1,4.48,4.48,0,0,0-.23-1,4.38,4.38,0,0,0-.41-.91,4.67,4.67,0,0,0-.58-.8,5.21,5.21,0,0,0-.74-.67,4.83,4.83,0,0,0-.85-.52,4.48,4.48,0,0,0-.93-.33,4.08,4.08,0,0,0-1-.15,4.76,4.76,0,0,0-1,.05,5.39,5.39,0,0,0-1,.24c-8.09,2.8-14.22,5.34-18,7-33.58-51.94-87.06-92-179.9-100.32a5.05,5.05,0,0,0-1,0,5.82,5.82,0,0,0-1,.24,5.58,5.58,0,0,0-.93.43,6.09,6.09,0,0,0-.82.62,5,5,0,0,0-.67.78,4.32,4.32,0,0,0-.5.89,4.85,4.85,0,0,0-.31,1,5,5,0,0,0-.1,1v79.93c-8.46,2.33-29.39,8.58-46.32,17.5A4.83,4.83,0,0,0,.7,150.75a4.91,4.91,0,0,0-.7,2.56V461.39a4.89,4.89,0,0,0,.13,1.15,4.89,4.89,0,0,0,1,2.08,5.3,5.3,0,0,0,.82.82,5,5,0,0,0,1,.6,4.75,4.75,0,0,0,1.1.37,5.07,5.07,0,0,0,1.16.11,4.48,4.48,0,0,0,1.15-.15c123.61-34.57,207.35-4.47,225.73-.14,18.38-4.32,103.51-34.43,227.05.14,4.09.76,6.36-1.33,6.36-4.95V153.31a5.11,5.11,0,0,0-.18-1.35,4.91,4.91,0,0,0-1.43-2.32A5.11,5.11,0,0,0,462.77,148.86ZM10,156.37a249.79,249.79,0,0,1,38.94-14.56V317.14a5.84,5.84,0,0,0,.08.93,4.67,4.67,0,0,0,.27.9,4.31,4.31,0,0,0,.42.83,4.55,4.55,0,0,0,.57.74,4.69,4.69,0,0,0,.7.63,5.84,5.84,0,0,0,.8.48,5.12,5.12,0,0,0,.88.32,4.77,4.77,0,0,0,.92.15c84.84,7.74,132.28,41.28,166.29,86.64-62.05-21.79-129-32-209.88,2.74Zm217.07,298.2C164.22,437,100.59,432.47,10,455V444.32c97.05-42.32,201.45-6,217.07-.1Zm0-21c-58.46-20-139.21-31.65-217.07-.1V422.52c78.06-37.76,162-23.85,217.07.07Zm0-32c-6.49-9.07-52-80.63-168.14-89.05V56.91c85.38,8.12,140,50.42,168.14,97.63ZM455.51,455c-75.64-22.15-167.35-16.49-218.44-.42V444.33c14.7-5.54,120.74-42.61,218.44,0Zm0-21.56c-77.72-31.65-160.18-19.75-218.44.22V422.61c17.84-7.92,118.63-48.34,218.44-.09Z"/><path d="M457.28,76.81c-1.57-28.4-28.77-50.85-56.93-46.74-22.15-40-81.69-40.1-104-.17-61.78-5.64-77.18,86-19.53,100a13.5,13.5,0,0,1,2.34.64,13,13,0,0,1,2.21,1,14.21,14.21,0,0,1,2,1.39,14,14,0,0,1,1.72,1.72,14.44,14.44,0,0,1,1.4,2,15.22,15.22,0,0,1,1,2.2,14.3,14.3,0,0,1,.64,2.35,13.86,13.86,0,0,1,.23,2.41v65.46c0,.71,0,1.42.11,2.13s.17,1.41.31,2.11a20.88,20.88,0,0,0,.52,2.07q.31,1,.72,2a21.36,21.36,0,0,0,.92,1.93,18.87,18.87,0,0,0,1.1,1.83,19.56,19.56,0,0,0,1.27,1.72c.45.55.93,1.08,1.43,1.58s1,1,1.59,1.43a19.84,19.84,0,0,0,3.55,2.37,21.36,21.36,0,0,0,1.93.92q1,.41,2,.72a20.88,20.88,0,0,0,2.07.52c.7.14,1.4.25,2.11.32s1.42.1,2.13.1h76.25c.72,0,1.43,0,2.14-.1s1.41-.18,2.11-.32a20.88,20.88,0,0,0,2.07-.52c.68-.21,1.36-.45,2-.72a21.36,21.36,0,0,0,1.93-.92,21,21,0,0,0,1.83-1.09,19.66,19.66,0,0,0,1.72-1.28c.55-.45,1.08-.93,1.58-1.43s1-1,1.44-1.58.87-1.12,1.27-1.72a22.48,22.48,0,0,0,2.74-5.77c.2-.68.37-1.37.52-2.07s.24-1.4.31-2.11.11-1.42.11-2.13V143.77a13,13,0,0,1,.21-2.33,12.88,12.88,0,0,1,.6-2.27,13.6,13.6,0,0,1,1-2.13,14.06,14.06,0,0,1,4.81-5.06,14.07,14.07,0,0,1,2.08-1.07,14.5,14.5,0,0,1,2.23-.72C441.33,124.83,458.81,100.38,457.28,76.81Zm-70.85,144H310.18c-8.75-.31-12.58-7.33-11.77-15.43,7.45,2.16,22.68,5.07,50.72,5.07,27.12,0,41.89-.81,49.08-1.4a11.7,11.7,0,0,1-.23,2.29,11.28,11.28,0,0,1-.67,2.21,12,12,0,0,1-1.09,2,12.16,12.16,0,0,1-3.25,3.25,12,12,0,0,1-2,1.08,11.49,11.49,0,0,1-2.21.67A11.08,11.08,0,0,1,386.43,220.83Zm30.34-100.35c-.18,0-13.38,3.09-33.79,2.18-6.6-.16-7,9.53-.44,10a176,176,0,0,0,18.52-.14,23.31,23.31,0,0,0-2.85,11.26V199c-3.23.29-8.5.64-16.46.93V165.25a5.43,5.43,0,0,0-.1-1,5,5,0,0,0-.28-.93,5.14,5.14,0,0,0-.46-.87,5.62,5.62,0,0,0-.62-.75,4.39,4.39,0,0,0-.76-.62,5.24,5.24,0,0,0-.87-.47,5,5,0,0,0-.93-.28,4.85,4.85,0,0,0-2,0,5,5,0,0,0-.93.28,5.24,5.24,0,0,0-.87.47,4.39,4.39,0,0,0-.76.62,5.62,5.62,0,0,0-.62.75,5.14,5.14,0,0,0-.46.87,5,5,0,0,0-.28.93,5.43,5.43,0,0,0-.1,1v35c-5.12.11-11,.19-17.75.22V165.25a5.43,5.43,0,0,0-.1-1,5,5,0,0,0-.28-.93,5.14,5.14,0,0,0-.46-.87,5.62,5.62,0,0,0-.62-.75,4.39,4.39,0,0,0-.76-.62,5.24,5.24,0,0,0-.87-.47,5,5,0,0,0-.93-.28,4.66,4.66,0,0,0-1-.1,4.5,4.5,0,0,0-1,.1,4.87,4.87,0,0,0-.94.28,5.24,5.24,0,0,0-.87.47,4,4,0,0,0-.75.62,5,5,0,0,0-.63.75,5.14,5.14,0,0,0-.46.87,5,5,0,0,0-.28.93,5.43,5.43,0,0,0-.1,1v35.19c-6.77-.1-12.66-.38-17.75-.76V165.25a5.43,5.43,0,0,0-.1-1,5,5,0,0,0-.28-.93,5.14,5.14,0,0,0-.46-.87,5,5,0,0,0-.63-.75,4,4,0,0,0-.75-.62,5.24,5.24,0,0,0-.87-.47,4.87,4.87,0,0,0-.94-.28,4.5,4.5,0,0,0-1-.1,4.66,4.66,0,0,0-1,.1,5,5,0,0,0-.93.28,5.24,5.24,0,0,0-.87.47,4.39,4.39,0,0,0-.76.62,5.62,5.62,0,0,0-.62.75,5.14,5.14,0,0,0-.46.87,5,5,0,0,0-.28.93,5.43,5.43,0,0,0-.1,1v33.42a84.33,84.33,0,0,1-17.85-3.79V143.6a24.66,24.66,0,0,0-.4-4.11,23.69,23.69,0,0,0-1.1-4,23.16,23.16,0,0,0-1.75-3.74,24.15,24.15,0,0,0-2.36-3.39,23.78,23.78,0,0,0-2.91-2.94,24.19,24.19,0,0,0-3.36-2.41,24.19,24.19,0,0,0-7.69-2.94c-20.6-4.21-27.94-23.37-27.94-39.91,0-1.35.07-2.71.2-4.05s.34-2.68.61-4,.61-2.63,1-3.93a39.21,39.21,0,0,1,1.39-3.8c.53-1.25,1.12-2.46,1.77-3.65A38,38,0,0,1,258,57.29a40.31,40.31,0,0,1,2.45-3.23c.88-1,1.8-2,2.77-3s2-1.83,3-2.67a40.36,40.36,0,0,1,3.3-2.36c1.14-.72,2.32-1.4,3.52-2s2.45-1.16,3.71-1.65a39.41,39.41,0,0,1,3.85-1.27,40.48,40.48,0,0,1,4-.88c1.33-.23,2.67-.39,4-.49s2.7-.11,4.06-.07a58.34,58.34,0,0,0-1.19,12.57c.2,6.57,9.93,6.47,10-.1a42,42,0,0,1,2.18-14.75c18-36.73,71.7-36.56,89.42.28a39.55,39.55,0,0,1,2.17,14.47c0,6.55,9.83,6.66,10,.09a56.42,56.42,0,0,0-1.19-12.5c21.86-1.87,42,15.82,43.24,37.69C448.52,96.15,434.25,116.26,416.77,120.48Z"/><path d="M386,311.27a31.24,31.24,0,0,0,20-3.41,31,31,0,0,0,5.63-3.95L427,290.48a5.12,5.12,0,0,0,1.57-2.47,5.38,5.38,0,0,0,.14-2,5.47,5.47,0,0,0-.23-1,4.18,4.18,0,0,0-.4-.89,5.19,5.19,0,0,0-.58-.81,5.79,5.79,0,0,0-.72-.68,5.53,5.53,0,0,0-.84-.51,5.26,5.26,0,0,0-1.91-.5,5.36,5.36,0,0,0-1,0,5.19,5.19,0,0,0-1,.24,5.24,5.24,0,0,0-.9.42,5,5,0,0,0-.79.58l-15.29,13.44c-12.65,11-23.39-.64-38.43,9L361,301.07a31.13,31.13,0,0,0,8.2-17.6,22.66,22.66,0,0,1,.56-4.43,22.38,22.38,0,0,1,1.42-4.23,22.83,22.83,0,0,1,2.24-3.86,21.39,21.39,0,0,1,2.95-3.35l17-15.31a5.64,5.64,0,0,0,.66-.72,6.07,6.07,0,0,0,.51-.84,4.92,4.92,0,0,0,.43-2.87,5.07,5.07,0,0,0-.23-1,4.83,4.83,0,0,0-.42-.89,5,5,0,0,0-.58-.79,5.72,5.72,0,0,0-.73-.66,5,5,0,0,0-.84-.5,4.23,4.23,0,0,0-.92-.34,4.45,4.45,0,0,0-1-.14,5.36,5.36,0,0,0-1,0,5.29,5.29,0,0,0-.95.24,4.74,4.74,0,0,0-.88.42,4.46,4.46,0,0,0-.79.58l-17,15.3c-14.18,12.49-6.1,24.35-16.68,34.78l-61.89-47.3a4.8,4.8,0,0,0-.52-.36L290,247a3.84,3.84,0,0,0-.6-.2,4.15,4.15,0,0,0-.61-.14,4.46,4.46,0,0,0-.63,0,3.33,3.33,0,0,0-.63,0,4.69,4.69,0,0,0-.62.1l-.6.18a4.17,4.17,0,0,0-.57.26,3.65,3.65,0,0,0-.54.32,4.66,4.66,0,0,0-.49.39,4.78,4.78,0,0,0-.45.45,5.86,5.86,0,0,0-.37.5,4.37,4.37,0,0,0-.32.55,5,5,0,0,0-.24.58,4.5,4.5,0,0,0-.17.6c-8.26,36.17,6.24,62.68,38.46,69.48l-35.7,27.29c-12.82,10.54,1.42,29.57,15.14,20.25l41.54-30.24c5.24-3.94-.5-11.85-5.88-8.07l-41.55,30.24a2.68,2.68,0,0,1-.93.45,2.75,2.75,0,0,1-1,0,2.6,2.6,0,0,1-1-.34,2.67,2.67,0,0,1-.77-.69,2.62,2.62,0,0,1-.5-2,2.62,2.62,0,0,1,.34-1,2.67,2.67,0,0,1,.69-.77L335.56,322c4.94,0,9.89.78,13.82,3.81l57,41.8a12.47,12.47,0,0,0,2.11,1.25,12,12,0,0,0,2.32.81,11.77,11.77,0,0,0,2.43.35,12.61,12.61,0,0,0,2.46-.12,13,13,0,0,0,2.38-.61,12.22,12.22,0,0,0,2.23-1,12.71,12.71,0,0,0,2-1.46,11.92,11.92,0,0,0,1.66-1.82,12.15,12.15,0,0,0,1.28-2.1,11.82,11.82,0,0,0,.84-2.31,12.34,12.34,0,0,0,.39-2.42,13.47,13.47,0,0,0-.1-2.46,12.41,12.41,0,0,0-.57-2.39,11.51,11.51,0,0,0-1-2.23,12.53,12.53,0,0,0-3.22-3.68l-46-35.14A21,21,0,0,1,386,311.27Zm29.43,44a2.64,2.64,0,0,1,1,1.69,2.59,2.59,0,0,1,0,1,2.69,2.69,0,0,1-.4.92,2.55,2.55,0,0,1-.74.76,2.61,2.61,0,0,1-1,.39,2.53,2.53,0,0,1-1.06,0,2.69,2.69,0,0,1-1-.47l-57-41.8a29.4,29.4,0,0,0-7.88-4.09,29,29,0,0,0-8.75-1.53c-28.19-.54-52.37-14.9-47.09-51.51Z"/><path d="M377.07,293.69a5,5,0,0,0,.7.68,5.09,5.09,0,0,0,.83.53,4.79,4.79,0,0,0,.91.36,5.08,5.08,0,0,0,1,.17,5.33,5.33,0,0,0,1,0,5.08,5.08,0,0,0,1.86-.6,4.8,4.8,0,0,0,.8-.56L409.3,272.8a5.62,5.62,0,0,0,.68-.7,4.8,4.8,0,0,0,.52-.83,5.07,5.07,0,0,0,.36-.91,5.37,5.37,0,0,0,.17-1,4.58,4.58,0,0,0,0-1,4.44,4.44,0,0,0-.21-1,4.71,4.71,0,0,0-.39-.89,5,5,0,0,0-.55-.81,5.71,5.71,0,0,0-.71-.68,4.72,4.72,0,0,0-.82-.52,5.07,5.07,0,0,0-.91-.36,5.35,5.35,0,0,0-1-.18,5.24,5.24,0,0,0-1,0,5.13,5.13,0,0,0-1,.21,5.92,5.92,0,0,0-.9.38,5.48,5.48,0,0,0-.8.56l-25.19,21.45a5.06,5.06,0,0,0-.68.71,5.46,5.46,0,0,0-.53.82,5.38,5.38,0,0,0-.36.91,5.07,5.07,0,0,0-.15,1.95,5.29,5.29,0,0,0,.2,1,4.75,4.75,0,0,0,.4.89A5.07,5.07,0,0,0,377.07,293.69Z"/></g></g></svg>