<svg xmlns="http://www.w3.org/2000/svg" viewBox="0 0 387.73 323.13"><g id="Warstwa_2" data-name="Warstwa 2"><g id="Warstwa_1-2" data-name="Warstwa 1"><path d="M386.49,167.79a11.37,11.37,0,0,0-10.14-6.22H348.22a81.61,81.61,0,0,0,13.66-38.78,6.46,6.46,0,0,0-3.75-5.87,60.91,60.91,0,0,0-43.67-4.59l43.13-38.24a33.67,33.67,0,0,0,12.57-36.52l2.61.88a6.46,6.46,0,1,0,4.09-12.26L367.39,23l12-12a6.46,6.46,0,0,0-9.13-9.14l-12,12L355.1,4.42a6.47,6.47,0,1,0-12.27,4.09l1.73,5.19a33.53,33.53,0,0,0-34.25,13.11L264,79a28.11,28.11,0,0,0-7.91-12.91,6.43,6.43,0,0,0-5.66-1.27,182.46,182.46,0,0,0-57.73,27.24,58.24,58.24,0,0,0-49.8-46.33A25.84,25.84,0,0,1,168,25.85a6.46,6.46,0,1,0,0-12.92A38.76,38.76,0,0,0,135.7,30.32a38.75,38.75,0,0,0-32.3-17.39,6.46,6.46,0,1,0,0,12.92,25.83,25.83,0,0,1,25.07,19.89,58.19,58.19,0,0,0-50.85,56.07C59.29,87.14,44.53,90.44,43.67,90.67a6.49,6.49,0,0,0-3.49,2.23A75.63,75.63,0,0,0,29.1,161.57H11.38a11.39,11.39,0,0,0-9.21,18.08l2.09,5.09a234.63,234.63,0,0,0,92.67,109.7v10a18.67,18.67,0,0,0,18.66,18.66H272.14a18.67,18.67,0,0,0,18.66-18.66v-10a234.5,234.5,0,0,0,92.65-109.68l2.11-5.11A11.41,11.41,0,0,0,386.49,167.79Zm-38-40.93a87.55,87.55,0,0,1-15.72,34.71h-14.5c-.05-.12-.11-.22-.15-.34a72.43,72.43,0,0,0-3.07-6.71c-.18-.34-.38-.67-.56-1q-1.65-3-3.57-5.9l-.37-.56A70.2,70.2,0,0,0,300,135,43.47,43.47,0,0,1,348.47,126.86Zm-89.62-13.42c.38-.74.77-1.49,1.11-2.21q1.07-2.28,1.94-4.52c.41-1.08.74-2.1,1.08-3.13.2-.61.4-1.23.57-1.84.35-1.2.65-2.37.89-3.51,0-.1.06-.21.08-.31l11.55-13,10.16,10.15a6.46,6.46,0,0,0,9.14-9.14l-10.71-10.7,12.67-14.29,8.29,8.28a6.46,6.46,0,0,0,9.13-9.14l-8.83-8.83,9.64-10.87L325,49.81a6.46,6.46,0,0,0,9.14-9.14l-9.89-9.89a20.88,20.88,0,1,1,25.53,33c-.18.13-.36.28-.53.43l-66.59,59.05a70.87,70.87,0,0,0-25.24-6.71l-.17,0C257.83,115.49,258.34,114.47,258.85,113.44Zm-2.52,16.12a58.51,58.51,0,0,1,6.72.86l1.48.32a59.42,59.42,0,0,1,7.15,2l1.14.42a56.33,56.33,0,0,1,7.19,3.32,56.92,56.92,0,0,1,7.34,4.77,59.76,59.76,0,0,1,5.75,5c.29.29.6.56.89.86a56.16,56.16,0,0,1,4.94,5.94c.22.3.48.56.69.87a56.19,56.19,0,0,1,4.51,7.57H199.94a58,58,0,0,1,22.07-24c.22-.13.45-.23.67-.35a56.67,56.67,0,0,1,6.65-3.35c.47-.2,1-.35,1.46-.53a58.88,58.88,0,0,1,6.34-2.11c.71-.19,1.43-.3,2.15-.46a59.28,59.28,0,0,1,6.07-1.07c.86-.09,1.74-.12,2.61-.18a56.41,56.41,0,0,1,6.1-.14C254.82,129.42,255.57,129.5,256.33,129.56Zm-64.64-19.83a157.58,157.58,0,0,1,58.06-31.27,23,23,0,0,1,2.07,16.7c-.24,1.19-.53,2.41-.91,3.65-.18.63-.4,1.27-.63,1.92q-.75,2.17-1.77,4.44c-.19.41-.37.82-.58,1.25-.81,1.67-1.73,3.38-2.75,5.11-.23.39-.43.77-.67,1.17-.89,1.45-1.91,2.93-2.94,4.42a71.18,71.18,0,0,0-9.14,2l-.14,0a70.57,70.57,0,0,0-42.14,33.31c-.21.37-.41.74-.61,1.12a70.91,70.91,0,0,0-3.61,7.69c0,.11-.1.2-.14.31H173.26c-.15-.77-.36-1.54-.48-2.31-.06-.44-.14-.88-.19-1.31a53.25,53.25,0,0,1-.48-6.91c0-.2,0-.4,0-.61a50.87,50.87,0,0,1,8.55-27.66l.42-.63A72.16,72.16,0,0,1,191.69,109.73ZM99,76.92a45.25,45.25,0,0,1,81.91,25.28c-.25.26-.45.52-.69.77q-2.34,2.39-4.48,4.93c-.45.54-.91,1.07-1.34,1.61-1.35,1.68-2.62,3.43-3.83,5.22-.35.52-.7,1-1,1.56-.5.78-1.07,1.52-1.54,2.32a62.64,62.64,0,0,0-8.54,26.72c0,.13,0,.27,0,.4a64.45,64.45,0,0,0-.17,7c0,.47,0,.94.05,1.41.11,2.06.32,4.13.61,6.22.06.42.05.83.12,1.26H151.3c-.24-.59-.58-1.12-.84-1.7-.5-1.1-1-2.15-1.6-3.21-.71-1.31-1.45-2.57-2.26-3.81-.65-1-1.32-2-2-2.91-.89-1.17-1.84-2.29-2.83-3.38-.78-.87-1.56-1.73-2.4-2.54-1.07-1-2.2-2-3.35-2.93-.89-.73-1.76-1.46-2.7-2.12-1.23-.89-2.54-1.66-3.85-2.44-1-.56-1.89-1.15-2.88-1.66-1.42-.72-2.91-1.3-4.39-1.88-1-.39-1.92-.84-2.92-1.16a48.43,48.43,0,0,0-5.18-1.3c-.86-.19-1.7-.47-2.58-.61a49.79,49.79,0,0,0-8.09-.66c-.93,0-1.84,0-2.71.09-.85-1.4-1.75-2.79-2.66-4.18-.51-.78-1-1.55-1.53-2.3-1.22-1.8-2.44-3.56-3.66-5.16A45.14,45.14,0,0,1,99,76.92Zm-6.79,67a2.34,2.34,0,0,0,.24-.09,40.28,40.28,0,0,1,5.42-1.18l1.75-.21a31.86,31.86,0,0,1,9.6.22c.59.09,1.18.24,1.77.37a37.15,37.15,0,0,1,3.84,1c.65.2,1.29.43,1.93.67,1.18.44,2.34.94,3.47,1.49.59.29,1.18.56,1.75.88a40.58,40.58,0,0,1,3.61,2.27c.38.28.79.5,1.16.78a40.51,40.51,0,0,1,4.24,3.71c.31.31.58.67.87,1a38.55,38.55,0,0,1,2.79,3.34c.39.53.75,1.09,1.11,1.65s.72,1.2,1.07,1.8H69.94c.15-.27.28-.55.45-.81.46-.75,1-1.46,1.46-2.17s1-1.41,1.58-2.09,1.14-1.34,1.74-2,1.22-1.25,1.87-1.84S78.3,151.53,79,151s1.5-1.15,2.27-1.7c.62-.43,1.24-.87,1.89-1.27,1-.59,2-1.14,3-1.65.48-.25,1-.51,1.47-.74A38.42,38.42,0,0,1,92.18,143.92Zm-43.4-40.86c5.09.21,18.13,2.1,33.25,21.8,1.13,1.47,2.29,3.1,3.54,4.9.38.57.77,1.1,1.15,1.69.1.16.21.35.32.5-.38.13-.72.33-1.09.46a53.51,53.51,0,0,0-5.61,2.41c-.58.29-1.14.59-1.7.9a51.63,51.63,0,0,0-11.79,8.83c-.32.31-.63.64-.94,1A52.67,52.67,0,0,0,61.37,151c-.09.13-.2.24-.29.37a51,51,0,0,0-3.8,6.41c-.26.5-.48,1-.72,1.52-.36.77-.76,1.51-1.08,2.3H42.89A61.82,61.82,0,0,1,48.78,103.06Zm322.72,76.8a221.62,221.62,0,0,1-89.09,104.49H265a6.47,6.47,0,0,0,0,12.93h12.93v7.19a5.74,5.74,0,0,1-5.74,5.73H115.59a5.74,5.74,0,0,1-5.74-5.73v-7.19H187.4a6.47,6.47,0,1,0,0-12.93H105.31A221.61,221.61,0,0,1,16.22,179.84L14,174.49H373.7Z"/><path d="M284.36,265a6.42,6.42,0,0,0,3.31-.91,160,160,0,0,0,60.77-67.63,6.46,6.46,0,0,0-11.89-5.06,145.68,145.68,0,0,1-55.42,61.54,6.4,6.4,0,0,0-.64.42l0,0A6.46,6.46,0,0,0,284.36,265Z"/><path d="M109.85,109.87a6.49,6.49,0,0,0,6.47-6.46A19.39,19.39,0,0,1,135.7,84a6.47,6.47,0,0,0,0-12.93,32.35,32.35,0,0,0-32.31,32.32,6.45,6.45,0,0,0,6.46,6.46Z"/></g></g></svg>