<svg xmlns="http://www.w3.org/2000/svg" viewBox="0 0 429.62 386.7"><g id="Warstwa_2" data-name="Warstwa 2"><g id="Warstwa_1-2" data-name="Warstwa 1"><path d="M399.78,165.55s0,0-.06.08a35.78,35.78,0,0,1-14.24,5.73,7.17,7.17,0,0,0,1.18,14.24,5.79,5.79,0,0,0,1.17-.11,49.42,49.42,0,0,0,14.24-4.73c1.34,2.21,2.69,4.65,3.08,5.4A35.64,35.64,0,0,1,408,197a.15.15,0,0,0,0,.09,31.88,31.88,0,0,1,.17,3.38c0,19.64-15.92,35.61-36.14,35.78a35.49,35.49,0,0,1-32.81-22.46,42.86,42.86,0,0,0,24.42-15.14,7.16,7.16,0,0,0-11.19-8.95,28.58,28.58,0,0,1-40.25,4.48,7.16,7.16,0,0,0-8.95,11.19,42.35,42.35,0,0,0,21,8.92,49.76,49.76,0,0,0,40.9,35.75c0,.2.05.36.05.56a35.84,35.84,0,0,1-35.8,35.81c-.84,0-1.51-.17-2.3-.2a49.87,49.87,0,0,0-27.86-31.33,42.58,42.58,0,0,0,8.68-25.76,7.17,7.17,0,0,0-14.33,0,28.66,28.66,0,0,1-28.64,28.64,7.16,7.16,0,0,0,0,14.32,42.74,42.74,0,0,0,22.1-6.18,35.65,35.65,0,0,1,27.41,28.28s0,.06,0,.08a32.78,32.78,0,0,1,.59,6.47,35.82,35.82,0,0,1-42.72,35.13h0a35.64,35.64,0,0,1-12.86-5.28,7.15,7.15,0,1,0-7.92,11.91,49.18,49.18,0,0,0,13.26,6.24c.06.7.14,1.4.14,2.12a21.45,21.45,0,0,1-34.6,17,21,21,0,0,1-8.37-17V50.13a35.79,35.79,0,0,1,50.8-32.51c1,.48,2,1,2.94,1.6a50.35,50.35,0,0,0-10.38,24.87,27.79,27.79,0,0,0-13.48,7.27A7.16,7.16,0,1,0,262,61.49a14.69,14.69,0,0,1,20.26,0,7.16,7.16,0,0,0,10.12-10.13,27.24,27.24,0,0,0-12.56-7A35.81,35.81,0,0,1,291,23.61c.05-.05.14-.05.19-.11a35.67,35.67,0,0,1,53.07,6h0a35.67,35.67,0,0,1,6.54,20.65,7.16,7.16,0,0,0,14.32,0,49.7,49.7,0,0,0-4.5-20.56c.84-.17,1.68-.39,2.55-.51s1.65-.22,2.46-.28c1-.08,2.07-.13,3.08-.13A39.44,39.44,0,0,1,408.14,68a43.24,43.24,0,0,1-2.88,14.8,20.61,20.61,0,0,1-1.09,2.32,37.24,37.24,0,0,1-3.39,5.65,51,51,0,0,0-44.64,1.07,35.23,35.23,0,0,0-19.61-5.94,7.17,7.17,0,0,0,0,14.33A21.48,21.48,0,0,1,358,121.74a7.17,7.17,0,0,0,14.33,0,35.3,35.3,0,0,0-5.6-19,36.21,36.21,0,0,1,31.5,2.82c.08,0,.19,0,.25.08s.17.2.28.28a35.75,35.75,0,0,1,1,59.62ZM207.63,367.23l-161.15-163C3.57,160.85,3.57,90.3,46.51,46.91a108.3,108.3,0,0,1,154.88,0l6.24,6.35ZM412.84,98.66a49.1,49.1,0,0,0,4.25-7.3,35.55,35.55,0,0,0,1.65-3.72A57,57,0,0,0,422.46,68a53.76,53.76,0,0,0-53.7-53.71c-1.29,0-2.66.09-4,.17s-2.44.22-3.5.39a52.14,52.14,0,0,0-8.73,1.93A50.26,50.26,0,0,0,315.05,0a49.76,49.76,0,0,0-28.62,9,47.67,47.67,0,0,0-7.72-4.42A49.59,49.59,0,0,0,257.76,0a50.23,50.23,0,0,0-47.89,35.3A122.43,122.43,0,0,0,36.29,36.87c-48.39,48.9-48.39,128.51,0,177.4l167.4,169.35a10.66,10.66,0,0,0,7.52,3.08,11,11,0,0,0,4.17-.84,10.8,10.8,0,0,0,6.1-6.77l.19.2a35.77,35.77,0,0,0,57.57-28.4,50.19,50.19,0,0,0,50.13-50.12,50.19,50.19,0,0,0,50.13-50.13v-.5a50.23,50.23,0,0,0,43-49.63,46.86,46.86,0,0,0-.25-4.87,51.17,51.17,0,0,0-4-15.3,76.05,76.05,0,0,0-4.25-7.91,50.1,50.1,0,0,0-1.15-73.77"/><path d="M293.56,114.58a50.19,50.19,0,0,0-50.12,50.13,7.16,7.16,0,0,0,14.32,0,35.84,35.84,0,0,1,35.8-35.81,7.16,7.16,0,1,0,0-14.32"/><path d="M123.93,28.65A93.75,93.75,0,0,0,56.66,57a97,97,0,0,0-28,64.42,7.16,7.16,0,0,0,6.85,7.47h.31A7.14,7.14,0,0,0,43,122.05a82.94,82.94,0,0,1,23.86-55A79.67,79.67,0,0,1,123.93,43a7.16,7.16,0,1,0,0-14.32"/><path d="M46.09,148.43a7.17,7.17,0,0,0-13.79,3.91c.72,2.6,1.59,5.18,2.54,7.72a7.13,7.13,0,0,0,6.69,4.65,7,7,0,0,0,2.51-.45,7.15,7.15,0,0,0,4.2-9.23c-.81-2.18-1.54-4.37-2.15-6.6"/></g></g></svg>