<svg xmlns="http://www.w3.org/2000/svg" viewBox="0 0 305.84 615.9"><g id="Warstwa_2" data-name="Warstwa 2"><g id="Warstwa_1-2" data-name="Warstwa 1"><path d="M111.51,615.9a38.22,38.22,0,0,1-17.86-4.47A38,38,0,0,1,78,560c56-105.23,67.71-170,69.6-199.85A388.43,388.43,0,0,0,108.3,259.52a161.79,161.79,0,0,1-31.1-12.1c-26-13.28-45.95-31.7-59.3-54.75C6.16,172.41,0,148.12,0,122.45,0,98.7,5.09,72.7,15.09,45.18c.08-.2.15-.39.22-.59A27.22,27.22,0,0,1,36.28,0c55.54,0,98.66,9.42,131.84,28.73,36.09,20.88,52,49.93,59,70.62a151.14,151.14,0,0,1,7.78,49,190.66,190.66,0,0,1-3.77,37.18,531.75,531.75,0,0,1,56,141.75,37.81,37.81,0,0,1,3.64,10.31c.62,3.23,15.13,80.24,15.13,240.28a38,38,0,1,1-76.1,0c0-76.86-3.46-133-6.66-168.39l-5.94.63c-11.33,54.76-35.54,117.18-72,185.65A38,38,0,0,1,111.51,615.9ZM36.28,16a11.23,11.23,0,0,0-6.42,20.44,8,8,0,0,1,1.83,11.32,11.69,11.69,0,0,0-1.56,2.88C20.76,76.41,16,100.58,16,122.46c0,23.19,5.27,44.11,15.75,62.19C43.53,205,61.27,221.31,84.46,233.17a140.4,140.4,0,0,0,30.89,11.61,8,8,0,0,1,5.16,3.83,404.83,404.83,0,0,1,42.9,109,7.94,7.94,0,0,1,.19,2.28c-1.73,30.62-13.33,98.3-71.52,207.6A22,22,0,1,0,131,588.21c37-69.5,61.11-132.4,71.59-187a8,8,0,0,1,7-6.45l19.84-2.11a8,8,0,0,1,8.81,7.18c3.42,35.05,7.49,94.38,7.49,178a22.05,22.05,0,1,0,44.1,0c0-158.52-14.23-234.08-14.84-237.22a21.81,21.81,0,0,0-2.44-6.55,8,8,0,0,1-.82-2.12,515.92,515.92,0,0,0-56-141.09,8,8,0,0,1-.9-5.71,174.52,174.52,0,0,0,4.05-36.84,135.29,135.29,0,0,0-6.93-43.81C205.82,86.38,191.88,61,160.09,42.57,129.83,25,88.18,16,36.28,16Zm74.61,203.56a8.12,8.12,0,0,1-2.82-.51,125.34,125.34,0,0,1-30.69-16.61A96.12,96.12,0,0,1,50.5,172.19v0c-8.06-14.58-12-30.84-12-49.7,0-19.23,4.3-40.82,12.78-64.16a11.17,11.17,0,0,0-.2-8.14A8,8,0,0,1,58.88,39.1C82.48,40.46,103.36,44,121,49.75c28.57,9.37,48.59,23.76,61.23,44,9.44,15.26,14.22,33.62,14.22,54.6,0,3.48-.14,7-.44,10.86a8,8,0,0,1-5.5,7,5.89,5.89,0,0,0-1.53.74l-73.47,51.21A8,8,0,0,1,110.89,219.56Zm-46.4-55.14A80.4,80.4,0,0,0,87,189.64a107,107,0,0,0,22.86,12.9l69.87-48.71.58-.39c.07-1.75.11-3.44.11-5.12,0-18-4-33.49-11.81-46.15C157.89,85.06,141.17,73.23,116,65,102.19,60.48,86,57.41,67.88,55.8a26.9,26.9,0,0,1-1.6,8c-7.84,21.58-11.82,41.32-11.82,58.68C54.49,138.53,57.77,152.26,64.49,164.42Z"/><path d="M113.71,96.21c.78,0,1.59,0,2.38.08,1.12.08,2.27.22,3.42.41s2.24.44,3.34.73,2.21.66,3.27,1.07,2.14.87,3.15,1.37,2,1.08,3,1.69,1.9,1.26,2.79,2a33.19,33.19,0,0,1,2.63,2.25,32.55,32.55,0,0,1,2.38,2.47,33.09,33.09,0,0,1,2.14,2.71c.66.92,1.28,1.9,1.85,2.88s1.09,2,1.56,3.07.89,2.13,1.25,3.19.68,2.2.94,3.33.46,2.25.6,3.38a33.06,33.06,0,0,1,.27,3.41c0,1.15,0,2.31-.07,3.45a33.42,33.42,0,0,1-.4,3.39c-.19,1.14-.44,2.29-.73,3.37s-.66,2.21-1.07,3.27-.87,2.13-1.38,3.16-1.07,2-1.67,3-1.27,1.92-2,2.84a34,34,0,0,1-2.23,2.6c-.79.84-1.62,1.64-2.47,2.39a33.92,33.92,0,0,1-2.71,2.13q-1.38,1-2.91,1.86A33.63,33.63,0,0,1,128,163.2a30.6,30.6,0,0,1-3.21,1.26,33.24,33.24,0,0,1-3.3.93c-1.08.25-2.22.45-3.37.6a32.2,32.2,0,0,1-3.41.27l-1,0c-.81,0-1.63,0-2.43-.09-1.15-.08-2.3-.21-3.39-.39s-2.29-.45-3.37-.74a34.13,34.13,0,0,1-3.29-1.07c-1-.4-2.12-.87-3.14-1.37s-2-1.08-3-1.68-1.93-1.28-2.84-2-1.78-1.45-2.59-2.21-1.65-1.64-2.4-2.49a33.92,33.92,0,0,1-2.13-2.71c-.65-.91-1.28-1.89-1.84-2.87s-1.11-2.05-1.57-3.07-.89-2.13-1.26-3.21-.67-2.2-.93-3.29a34.34,34.34,0,0,1-.6-3.41,33,33,0,0,1-.27-3.44,31.87,31.87,0,0,1,.06-3.39c.08-1.16.22-2.32.41-3.45s.43-2.24.73-3.34a33.94,33.94,0,0,1,1.07-3.28c.41-1.08.87-2.14,1.37-3.15s1.08-2,1.68-3,1.28-1.94,2-2.82,1.47-1.8,2.23-2.61,1.64-1.65,2.49-2.4,1.77-1.46,2.71-2.13,1.89-1.28,2.88-1.85,2-1.1,3-1.55,2.15-.9,3.22-1.26a33.94,33.94,0,0,1,3.3-.93c1.14-.26,2.28-.47,3.38-.61a34,34,0,0,1,3.47-.27l1,0m0-14-1.48,0a48,48,0,0,0-4.79.37c-1.6.21-3.17.49-4.74.85s-3.11.79-4.63,1.3-3,1.1-4.48,1.76S90.7,87.91,89.3,88.7s-2.74,1.67-4,2.6a47.12,47.12,0,0,0-3.78,3c-1.21,1-2.36,2.17-3.46,3.33a47.23,47.23,0,0,0-3.13,3.66q-1.47,1.91-2.75,4a47.91,47.91,0,0,0-2.35,4.2,45.61,45.61,0,0,0-1.93,4.41q-.85,2.25-1.49,4.57c-.42,1.55-.76,3.12-1,4.7s-.45,3.18-.56,4.78-.15,3.21-.1,4.81.18,3.21.38,4.8a48,48,0,0,0,.85,4.74c.36,1.56.79,3.11,1.3,4.63s1.1,3,1.76,4.48a46.52,46.52,0,0,0,2.18,4.28q1.2,2.1,2.6,4.06t3,3.78a49.58,49.58,0,0,0,7,6.59q1.91,1.47,4,2.75c1.36.85,2.76,1.64,4.19,2.35s2.91,1.36,4.41,1.93,3,1.06,4.58,1.49,3.12.76,4.7,1,3.18.45,4.78.56q1.7.12,3.39.12l1.42,0c1.61,0,3.2-.18,4.8-.38s3.17-.49,4.73-.85a46.09,46.09,0,0,0,4.63-1.31,46.71,46.71,0,0,0,4.48-1.75,45.53,45.53,0,0,0,4.29-2.19,46.32,46.32,0,0,0,4.05-2.59,47.12,47.12,0,0,0,3.78-3,45.47,45.47,0,0,0,3.47-3.33q1.65-1.75,3.13-3.66c1-1.27,1.89-2.59,2.75-3.95s1.63-2.76,2.35-4.2,1.36-2.91,1.93-4.41,1.06-3,1.48-4.57a47.46,47.46,0,0,0,1-4.7,47.94,47.94,0,0,0,.57-4.78c.11-1.6.14-3.2.09-4.81a45.42,45.42,0,0,0-.38-4.8,47.29,47.29,0,0,0-.84-4.73c-.36-1.57-.8-3.11-1.31-4.64s-1.09-3-1.75-4.48-1.39-2.89-2.18-4.28-1.67-2.75-2.6-4.06a47,47,0,0,0-3-3.77,45.6,45.6,0,0,0-3.34-3.47,47.4,47.4,0,0,0-3.65-3.13c-1.28-1-2.59-1.9-3.95-2.75a49.34,49.34,0,0,0-8.61-4.28c-1.5-.57-3-1.06-4.57-1.48a47.5,47.5,0,0,0-4.7-1c-1.59-.26-3.18-.45-4.78-.56-1.11-.08-2.23-.12-3.34-.12Z"/></g></g></svg>