<svg xmlns="http://www.w3.org/2000/svg" viewBox="0 0 265.04 415.77">
    <g id="Warstwa_2" data-name="Warstwa 2">
        <g id="Warstwa_1-2" data-name="Warstwa 1">
            <path d="M132.52,87.71q-3.15,0-6.3,0t-6.28-.14c-2.08-.06-4.17-.14-6.25-.23s-4.15-.2-6.21-.32-4.12-.26-6.16-.42-4.06-.31-6.07-.5-4-.38-6-.59-3.94-.44-5.89-.68-3.87-.5-5.78-.77-3.78-.55-5.64-.85-3.72-.61-5.53-.94-3.6-.66-5.36-1-3.49-.72-5.19-1.09-3.4-.78-5-1.18-3.21-.81-4.84-1.25-3.13-.87-4.64-1.32-3-.92-4.45-1.4-2.72-.92-4.22-1.46-2.72-1-4-1.54-2.53-1-3.79-1.61-2.44-1.13-3.55-1.68S19.07,67.53,18,66.93,16,65.76,15,65.12,13,63.84,12.13,63.21s-1.76-1.31-2.57-2-1.62-1.41-2.33-2.11-1.42-1.47-2-2.21a26,26,0,0,1-1.74-2.32A24.73,24.73,0,0,1,2,52.08,20.41,20.41,0,0,1,.91,49.44,17.6,17.6,0,0,1,0,43.85,18,18,0,0,1,.23,41a17.65,17.65,0,0,1,.68-2.76A20,20,0,0,1,2,35.65a21.54,21.54,0,0,1,1.44-2.5,27.61,27.61,0,0,1,1.74-2.33c.62-.74,1.31-1.48,2.05-2.21s1.51-1.43,2.32-2.11,1.64-1.32,2.57-2S14,23.22,14.93,22.6s2-1.24,3.08-1.83,2.21-1.19,3.31-1.75,2.3-1.11,3.54-1.67,2.54-1.11,3.8-1.61,2.64-1,4-1.54,2.78-1,4.23-1.47,2.9-.93,4.43-1.39S44.4,10.45,46,10s3.21-.85,4.86-1.26,3.31-.79,5-1.17,3.43-.74,5.2-1.09,3.55-.7,5.36-1,3.64-.64,5.51-.94,3.75-.58,5.65-.85,3.85-.52,5.79-.76,3.9-.47,5.88-.68,4-.41,6-.6,4-.35,6.07-.5,4.1-.29,6.16-.41,4.13-.23,6.21-.32S117.86.25,120,.19s4.18-.11,6.28-.14c4.17-.07,8.39-.07,12.59,0,2.09,0,4.19.07,6.28.14s4.17.13,6.25.23,4.15.19,6.21.32,4.11.26,6.14.41,4.08.32,6.09.5,4,.38,6,.59,3.95.45,5.9.69,3.86.49,5.77.76,3.79.56,5.65.85,3.72.62,5.53.94,3.59.66,5.36,1,3.49.71,5.19,1.09,3.39.77,5,1.18,3.25.82,4.83,1.24,3.14.88,4.65,1.33,3,.92,4.45,1.4,2.85,1,4.23,1.46,2.72,1,4,1.54,2.57,1.07,3.78,1.61,2.38,1.1,3.54,1.67,2.23,1.15,3.3,1.74,2.07,1.2,3.07,1.83,1.92,1.26,2.82,1.91,1.83,1.36,2.6,2,1.55,1.34,2.28,2.07,1.43,1.47,2.06,2.22,1.25,1.58,1.77,2.36A23.44,23.44,0,0,1,263,35.63a18.34,18.34,0,0,1,1.09,2.64,17.26,17.26,0,0,1,.68,2.75,17.53,17.53,0,0,1,0,5.66,18.22,18.22,0,0,1-.68,2.76A19.11,19.11,0,0,1,263,52.08a23.22,23.22,0,0,1-1.44,2.49,26.23,26.23,0,0,1-1.75,2.33,28.65,28.65,0,0,1-2.06,2.22c-.72.72-1.5,1.42-2.31,2.1s-1.64,1.32-2.55,2-1.86,1.3-2.82,1.91S248,66.37,247,66.94s-2.15,1.17-3.29,1.74-2.36,1.14-3.56,1.68-2.48,1.08-3.78,1.61-2.64,1-4,1.53c-1.54.56-2.92,1-4.25,1.47s-2.91.94-4.42,1.4-3.08.89-4.67,1.32-3.26.87-4.84,1.25-3.31.79-5,1.17-3.45.75-5.21,1.1-3.56.69-5.37,1-3.64.63-5.5.93-3.76.59-5.67.85-3.82.53-5.77.77-3.92.47-5.9.68-4,.41-6,.59-4.05.35-6.1.5-4.08.3-6.14.42-4.13.23-6.21.32-4.17.17-6.26.23-4.17.11-6.27.14S134.62,87.71,132.52,87.71Zm0-75.71q-3.06,0-6.12.05c-2,0-4.07.07-6.1.13s-4.06.14-6.08.22-4,.2-6,.32-4,.25-6,.4-3.93.31-5.89.48-3.88.37-5.8.58-3.81.42-5.69.66-3.75.48-5.58.74-3.65.53-5.44.82-3.54.58-5.28.89-3.46.64-5.13,1-3.34.69-5,1-3.2.73-4.75,1.11-3.09.78-4.58,1.18-2.93.81-4.35,1.24-2.77.85-4.11,1.29S38,25,36.78,25.47s-2.47.93-3.63,1.4-2.26.93-3.38,1.43-2.13,1-3.09,1.46-1.9,1-2.83,1.49-1.69,1-2.49,1.49-1.53,1-2.23,1.5-1.3,1-1.88,1.46-1.11,1-1.6,1.45-.89.92-1.26,1.36a15,15,0,0,0-1,1.29A10.74,10.74,0,0,0,12.74,41,7.25,7.25,0,0,0,12.31,42a5.75,5.75,0,0,0-.24.95,5.22,5.22,0,0,0-.07.88,5.34,5.34,0,0,0,.07.89,5.75,5.75,0,0,0,.24.95,8.37,8.37,0,0,0,.44,1.07,10.11,10.11,0,0,0,.69,1.17,15.86,15.86,0,0,0,1,1.29c.36.43.79.89,1.26,1.35s1,1,1.59,1.43,1.24,1,1.9,1.48,1.42,1,2.22,1.5,1.65,1,2.48,1.47,1.86,1,2.83,1.49,2,1,3.1,1.47,2.24,1,3.36,1.43,2.39.93,3.64,1.39,2.54.91,3.87,1.34,2.73.88,4.14,1.31,2.84.83,4.33,1.23,3,.8,4.56,1.17,3.16.76,4.78,1.12,3.26.71,4.94,1,3.39.66,5.13,1,3.51.62,5.3.9,3.59.56,5.43.82,3.71.51,5.58.74,3.77.45,5.69.66,3.87.39,5.82.57,3.9.34,5.87.49,4,.28,6,.4,4,.22,6,.31,4,.17,6.07.23,4.08.1,6.11.13q6.12.09,12.24,0,3.06,0,6.1-.13c2-.06,4.06-.14,6.08-.23s4-.19,6-.31,4-.25,6-.4,3.95-.31,5.89-.49,3.88-.36,5.8-.57,3.82-.43,5.7-.66,3.73-.48,5.58-.74,3.65-.53,5.45-.82,3.53-.58,5.27-.89,3.46-.64,5.14-1,3.33-.68,5-1,3.19-.73,4.75-1.11,3.08-.78,4.56-1.18,2.94-.81,4.36-1.24,2.77-.85,4.11-1.29,2.64-.9,3.9-1.35,2.45-.92,3.63-1.39,2.28-1,3.35-1.43,2.1-1,3.11-1.47,1.91-1,2.8-1.48,1.69-1,2.53-1.5,1.49-1,2.21-1.49,1.31-1,1.88-1.47,1.09-.94,1.59-1.43.88-.91,1.27-1.37a14.71,14.71,0,0,0,1-1.28,10.31,10.31,0,0,0,.69-1.18,7.51,7.51,0,0,0,.43-1.05,5.75,5.75,0,0,0,.24-.95,5.34,5.34,0,0,0,.07-.89A5.22,5.22,0,0,0,253,43a6.44,6.44,0,0,0-.23-.94,8.58,8.58,0,0,0-.43-1.05,13.27,13.27,0,0,0-.68-1.17c-.3-.44-.62-.87-1-1.3s-.81-.93-1.27-1.38-1-1-1.57-1.42-1.2-1-1.92-1.48-1.45-1-2.21-1.5-1.66-1-2.51-1.49-1.85-1-2.81-1.48-2.05-1-3.09-1.46-2.21-1-3.37-1.43-2.39-.94-3.62-1.39-2.58-.92-3.89-1.35-2.73-.88-4.12-1.29-2.88-.84-4.36-1.25-3-.79-4.55-1.17-3.15-.76-4.77-1.11-3.27-.71-5-1-3.39-.66-5.13-1-3.51-.61-5.3-.9-3.6-.56-5.44-.82-3.68-.5-5.56-.73-3.79-.46-5.71-.66-3.84-.4-5.79-.58-3.92-.33-5.9-.48-4-.28-6-.4-4-.23-6-.32-4-.16-6.07-.22-4.07-.11-6.1-.13S134.56,12,132.52,12Z"/><path d="M132.52,415.77c-39.11,0-81.19-8.84-81.9-28.21l-50-339A17.9,17.9,0,0,1,0,43.85,6,6,0,0,1,11.94,43l.4,2.76c1.82,5.23,11,12.72,32.44,19.13,23.35,7,54.51,10.84,87.74,10.84s64.4-3.85,87.75-10.84c21.44-6.41,30.62-13.9,32.43-19.13l.41-2.76a6,6,0,0,1,11.93.87,17.9,17.9,0,0,1-.63,4.72l-50,339C213.71,406.93,171.64,415.77,132.52,415.77ZM15.23,65.3,62.54,386.18a5.1,5.1,0,0,1,.07.87c0,1.29,3.3,5.93,18,10.31,13.8,4.13,32.25,6.41,52,6.41s38.17-2.28,52-6.41c14.66-4.38,18-9,18-10.31a6.36,6.36,0,0,1,.06-.87L249.82,65.3c-6.63,4.14-15.36,7.85-26.11,11.07-24.44,7.31-56.83,11.34-91.19,11.34s-66.74-4-91.18-11.34C30.59,73.15,21.85,69.44,15.23,65.3Z"/>
        </g>
    </g>
</svg>