<svg xmlns="http://www.w3.org/2000/svg" viewBox="0 0 402.86 607.89"><g id="Warstwa_2" data-name="Warstwa 2"><g id="Warstwa_1-2" data-name="Warstwa 1"><path d="M199.11,267.56a73.72,73.72,0,1,1,73.71-73.72A73.8,73.8,0,0,1,199.11,267.56Zm0-130.43a56.72,56.72,0,1,0,56.71,56.71A56.78,56.78,0,0,0,199.11,137.13Z"/><path d="M201.86,607.89l-145.67,0c-29.43,0-53-21.75-55.94-51.72-2.79-28,18.07-55.61,45.55-60.36,6.61-1.13,13.12-1,19.4-.88,2,0,4,.07,6,.07,4.65,0,9.41.12,14,.26,7.34.22,14.92.45,22,0,3-.2,10.35-10.12,14.09-39.54a120.59,120.59,0,0,0-5.92-54.41c-2.18-6.25-4.88-12.41-7.73-18.92-3.76-8.57-7.63-17.4-10.32-26.7A8.58,8.58,0,0,1,96,352.94c-1.84-7.19-17-42.55-30.35-73.75-18.55-43.27-29.95-70.12-32-78.18-5.26-21.2,2.69-39.33,22.4-51,7.93-4.71,15.9-9.65,23.62-14.42,16.47-10.19,33.5-20.73,51.25-29.87,19.73-10.17,33.93-26.92,40-47.18,2.55-8.6,4.41-17.28,6.38-26.47.94-4.38,1.91-8.92,2.95-13.4l.1-.42c1-4.48,2.44-10.63,8.5-14.85C195.51-1.26,201.29-.11,204.15,1c10,3.85,14.35,17.41,17,28.79.31,1.31.58,2.62.85,3.92.49,2.31.94,4.5,1.54,6.55a237.17,237.17,0,0,1,5.77,25.12c2.76,15.85,10.7,25.93,27.41,34.8,19.4,10.3,38.29,22,56.57,33.32,9.26,5.74,18.84,11.67,28.33,17.31,24.52,14.63,25.6,33,22.18,45.77-2.45,9.21-15.15,41.34-28.6,75.36-11.13,28.12-22.62,57.18-26.55,69-1.73,14.89-7.64,28.36-13.36,41.4-2.86,6.51-5.55,12.66-7.73,18.92a120.55,120.55,0,0,0-5.92,54.4c3.74,29.42,11.11,39.34,14.1,39.54,7,.47,14.64.24,22,0,4.6-.14,9.37-.29,14-.26,2,0,3.94,0,5.92-.07,6.29-.12,12.79-.25,19.38.87h0c27.48,4.76,48.33,32.4,45.54,60.37-3,30-26.51,51.71-55.94,51.71ZM59.22,511.83a64.16,64.16,0,0,0-10.55.71c-18.67,3.24-33.41,22.83-31.5,41.93,2.13,21.43,18.18,36.4,39,36.4,48.07,0,243.53,0,290.47,0,20.84,0,36.89-15,39-36.4,1.9-19.1-12.83-38.69-31.53-41.93-5-.85-10.43-.74-16.18-.64-2.06,0-4.17.08-6.31.08-4.41,0-8.81.11-13.46.25-7.74.24-15.75.48-23.63-.05-15.33-1-25.36-19.31-29.82-54.35a137.62,137.62,0,0,1,6.72-62.13c2.4-6.89,5.36-13.64,8.22-20.16,5.56-12.68,10.81-24.65,12.12-37.27a8.56,8.56,0,0,1,.37-1.74c3.83-11.81,15.17-40.49,27.18-70.86,12.09-30.57,25.79-65.22,28-73.48,1.95-7.3,2.06-16.94-14.46-26.79-9.6-5.72-19.24-11.69-28.57-17.47-18-11.17-36.7-22.72-55.6-32.76-21.34-11.33-32.5-25.79-36.17-46.88A224.17,224.17,0,0,0,207.2,45c-.77-2.67-1.32-5.28-1.85-7.8-.25-1.19-.5-2.38-.77-3.57-2.55-11-4.94-14.89-6.07-16.22C197.88,18,197.4,20,197,22l-.11.46c-1,4.34-2,8.8-2.89,13.11-1.95,9.1-4,18.52-6.71,27.76-7.38,24.74-24.59,45.14-48.48,57.44C121.6,129.63,104.86,140,88.67,150c-7.77,4.81-15.82,9.79-23.87,14.58-13.26,7.88-18,18.46-14.59,32.32,1.82,7.32,17.37,43.59,31.08,75.59,15.89,37.09,26.41,61.8,30.08,72.6a8.33,8.33,0,0,1,1.45,3c2.33,9.18,6.21,18,10.33,27.42,2.86,6.53,5.82,13.28,8.22,20.17a137.71,137.71,0,0,1,6.73,62.15c-4.46,35-14.5,53.32-29.83,54.34-7.88.53-15.88.29-23.62.05-4.66-.14-9-.28-13.44-.25-2.13,0-4.28,0-6.34-.08S61.06,511.83,59.22,511.83Zm70.73-212a8.51,8.51,0,0,1-7.73-4.94v0l-.2-.44c-9.14-20-33.43-73.09-38.31-85.8-4.38-11.29,5.76-27.35,12.16-33.43,15.46-14.71,31.73-28.94,47.47-42.7,9.29-8.13,18.89-16.52,28.19-24.9,3.82-3.45,6.87-7.56,10.1-11.91a119.89,119.89,0,0,1,9.17-11.32A8.49,8.49,0,0,1,197,81.71h0a8.5,8.5,0,0,1,6.19,2.71c1.16,1.25,2.4,2.62,3.72,4.06,5.69,6.25,12.77,14,20,19.58l.9.68c13.54,10.36,27.53,21.06,39.73,33.57,4.07,4.17,9,8.62,14.21,13.33,17.83,16.1,34.67,31.3,32.27,47.19-1.88,12.34-18.07,44.17-35.93,78.5l-4,7.65a8.5,8.5,0,0,1-15.34-.51c-3.37-2.76-13.7-8.84-17.58-10.83a88.34,88.34,0,0,0-39.84-10h0a80.1,80.1,0,0,0-35.45,7.82,96.11,96.11,0,0,0-15.78,9.43,139.51,139.51,0,0,0-12.45,9.93,8.52,8.52,0,0,1-7.74,5Zm129.62-10.67h0Zm-121.85-1.26h0Zm0,0h0Zm0,0v0Zm0,0v0Zm0,0h0v0Zm121.18-6.23h0Zm0,0h0Zm0,0v0Zm0,0,0,0ZM99.63,202.71c4.17,10.76,22.22,50.45,33,74.12,3.1-2.46,6.14-4.7,7.42-5.64a112.76,112.76,0,0,1,18.53-11.07,96.94,96.94,0,0,1,42.88-9.47h0A105.53,105.53,0,0,1,249,262.53c1.16.6,7,3.81,12.53,7.26l2.57,1.61c10.92-21,31.56-60.91,33.13-71.13,1-6.83-16.43-22.59-26.86-32-5.42-4.9-10.55-9.52-15-14.08-11.34-11.62-24.83-22-37.89-31.93l-.89-.68c-7.17-5.47-13.76-12.34-19.35-18.43l-2,2.69c-3.58,4.82-7.29,9.82-12.37,14.4-9.39,8.46-19.05,16.9-28.38,25.07-15.61,13.64-31.74,27.75-46.94,42.22C103.11,191.76,99.37,200.09,99.63,202.71Zm-.07-.2h0Z"/></g></g></svg>