<svg xmlns="http://www.w3.org/2000/svg" xmlns:xlink="http://www.w3.org/1999/xlink" viewBox="0 0 463.06 445.96"><defs><style>.cls-1{clip-path:url(#clip-path);}.cls-2{clip-path:url(#clip-path-2);}</style><clipPath id="clip-path"><rect x="222.7" width="17" height="40.85"/></clipPath><clipPath id="clip-path-2"><rect x="310.7" y="397.85" width="151.67" height="25"/></clipPath></defs><g id="Warstwa_2" data-name="Warstwa 2"><g id="Warstwa_1-2" data-name="Warstwa 1"><path d="M180.29,271.36l.93.5,6.33,10.37A23.59,23.59,0,0,0,182,318.62a23.66,23.66,0,0,0-6.22,15.92,23.92,23.92,0,0,0,23.91,23.87h63.76a23.76,23.76,0,0,0,17.69-39.79,23.59,23.59,0,0,0-5.58-36.39l6.33-10.37.93-.5c42.14-17.42,68.3-56.83,68.3-103,0-62-53.63-112.42-119.55-112.42S112,106.41,112,168.4C112,214.53,138.15,253.94,180.29,271.36Zm83.13,71.14H199.66a8,8,0,1,1,0-15.92h63.76a8,8,0,1,1,0,15.92Zm0-31.84H199.66a8,8,0,1,1,0-15.92h63.76a8,8,0,1,1,0,15.92ZM231.54,71.89c57.13,0,103.61,43.29,103.61,96.51,0,39.69-22.54,73.56-58.81,88.4-.27.11-.53.23-.79.36l-3.19,1.73a7.9,7.9,0,0,0-3,2.85l-10.42,17.09h-3.49V218.45L293,181,281.7,169.73l-39.86,39.8a8,8,0,0,0-2.33,5.63v63.67H223.57V215.16a7.94,7.94,0,0,0-2.34-5.63l-39.84-39.8L170.12,181l37.51,37.46v60.38h-3.49l-10.43-17.08a7.94,7.94,0,0,0-3-2.85l-3.19-1.73c-.25-.13-.52-.26-.79-.37-36.27-14.84-58.81-48.71-58.81-88.4C127.93,115.18,174.41,71.89,231.54,71.89Z"/><path d="M60.61,71.05l7.13-14.23L115.56,80.7l-7.13,14.23Z"/><path d="M345.65,76.76l50.72-16.9,5,15.1L350.7,91.86Z"/><path d="M32.3,159.45H80.11v15.91H32.3Z"/><path d="M383,159.45h47.83v15.91H383Z"/><path d="M60.61,279.67l47.82-23.88L115.55,270,67.73,293.9Z"/><path d="M347.52,270.05l7.13-14.24,47.82,23.87-7.13,14.24Z"/><rect x="222.7" width="17" height="40.85"/><g class="cls-1"><path d="M223.57.27h15.94V40.06H223.57Z"/></g><path d="M462.66,374.33V358.41c-104,0-214.46,25.11-215.18,71.63H215.6c-.71-46.52-111.2-71.63-215.18-71.63v15.92c116.75,0,198.28,29.27,199.2,55.71H.42V446H462.66V430H263.46C264.38,403.6,345.91,374.33,462.66,374.33Z"/><path d="M0,414.13l.84-15.9,151.42,8-.84,15.89Z"/><rect x="310.7" y="397.85" width="151.67" height="25"/><g class="cls-2"><path d="M310.8,406.21l151.42-8,.84,15.89-151.42,8Z"/></g></g></g></svg>