<?xml version="1.0" encoding="utf-8"?>
<!-- Generator: Adobe Illustrator 24.0.1, SVG Export Plug-In . SVG Version: 6.00 Build 0)  -->
<svg version="1.2" baseProfile="tiny" id="Warstwa_1"
	 xmlns="http://www.w3.org/2000/svg" xmlns:xlink="http://www.w3.org/1999/xlink" x="0px" y="0px" viewBox="0 0 793.7 152.2"
	 xml:space="preserve">
<g>
	<path fill="#C54B38" d="M240.8,51.6c14.3,0,24.6,10.2,24.6,24.5c0,14.3-10.2,24.6-24.6,24.6c-14.3,0-24.5-10.2-24.5-24.6
		C216.3,61.8,226.4,51.6,240.8,51.6 M240.8,96.7C252.5,96.7,261,88,261,76c0-11.9-8.5-20.6-20.2-20.6c-11.7,0-20.2,8.7-20.2,20.6
		C220.6,88,229.1,96.6,240.8,96.7"/>
	<polygon fill="#C54B38" points="316.5,99 311.3,99 282,58.5 282,99 277.9,99 277.9,53.2 283.1,53.2 312.3,93.7 312.3,53.2 
		316.5,53.2 	"/>
	<polygon fill="#C54B38" points="357.5,53.2 360.8,53.2 360.8,55.5 339.3,74.7 361.5,96.6 361.5,99 358,99 335.6,76.6 335.6,99 
		331.2,99 331.2,53.2 335.6,53.2 335.6,73 	"/>
	<path fill="#C54B38" d="M391.9,51.6c14.3,0,24.6,10.2,24.6,24.5c0,14.3-10.2,24.6-24.6,24.6c-14.3,0-24.5-10.2-24.5-24.6
		C367.4,61.8,377.5,51.6,391.9,51.6 M391.9,96.7C403.6,96.7,412,88,412,76c0-11.9-8.5-20.6-20.2-20.6c-11.7,0-20.2,8.7-20.2,20.6
		C371.7,88,380.1,96.6,391.9,96.7"/>
	<path fill="#C54B38" d="M442.7,99H429V53.2h13.7c16,0,26.7,9.1,26.7,22.9C469.4,89.8,458.7,99,442.7,99 M433.4,57.1v38h9.3
		c13.4,0,22.4-7.4,22.4-19c0-11.5-9-19-22.4-19H433.4z"/>
	<rect x="482" y="53.2" fill="#C54B38" width="4.4" height="45.8"/>
	<polygon fill="#C54B38" points="501,99 501,53.2 532.2,53.2 532.2,57.1 505.3,57.1 505.3,73.3 529.6,73.3 529.6,77.1 505.3,77.1 
		505.3,95.1 532.8,95.1 532.8,99 	"/>
	<polygon fill="#C54B38" points="576,53.2 576,57.1 560.4,57.1 560.4,99 556,99 556,57.1 540.4,57.1 540.4,53.2 	"/>
	<polygon fill="#C54B38" points="586.1,99 586.1,53.2 617.2,53.2 617.2,57.1 590.3,57.1 590.3,73.3 614.6,73.3 614.6,77.1 
		590.3,77.1 590.3,95.1 617.8,95.1 617.8,99 	"/>
	<polygon fill="#C54B38" points="661,53.2 661,57.1 645.4,57.1 645.4,99 641,99 641,57.1 625.4,57.1 625.4,53.2 	"/>
	<polygon fill="#C54B38" points="686.3,78.2 701.4,53.2 704.8,53.2 704.8,55.7 688.5,82.2 688.5,99 684.1,99 684.1,82.2 667.6,55.7 
		667.6,53.2 671.1,53.2 	"/>
	<polygon fill="#C54B38" points="742.3,53.2 745.7,53.2 745.7,55.5 724.2,74.7 746.4,96.6 746.4,99 742.9,99 720.5,76.6 720.5,99 
		716.1,99 716.1,53.2 720.5,53.2 720.5,73 	"/>
	<path fill="#C54B38" d="M777.2,53.2l16.5,43.3V99H790l-3.7-9.7h-24.4l-3.7,9.7h-3.7v-2.5L771,53.2H777.2z M763.1,85.8h22.1
		l-11-28.7L763.1,85.8z"/>
	<path fill="#A69B95" d="M99.1,0c17,1.6,54.2,20.1,58.9,65.4c6.3,60.7-48.7,95.4-82.5,73.2c-21.7-14.3-30.6-62.9-19.4-82.5
		c-0.7,16.2,8.1,81.2,48.6,71.9C137.1,119.3,171.9,32.5,99.1,0"/>
	<path fill="#A69B95" d="M111.4,48.1c9.3,40.4-13.5,71-13.6,71.2c9.8-3.1,39.4-33,27.9-74.3C112.6-2.4,64.7-0.7,59.4,1.4
		C60.3,2.2,100.5,0.2,111.4,48.1"/>
	<path fill="#C54B38" d="M31.3,136.5C23.6,130-7.8,106.8,1.8,55.6C12,1.1,66.5,1.6,88.2,31.6c18.1,25,15.4,65.1-5.6,82.3
		c12.7-23.8,8.3-80.2-27.8-85.2C17.1,23.4,4.1,101.4,31.3,136.5"/>
	<path fill="#A69B95" d="M43.3,49.7c0,0-6.4,22-2.9,47.1c2.7,19.5,15.1,44.2,33.6,55.3c-9.2-1.5-42.3-12.2-45.1-52.7
		C28,85.8,30.4,63.1,43.3,49.7"/>
</g>
</svg>
