<svg xmlns="http://www.w3.org/2000/svg" viewBox="0 0 272.43 599.95"><g id="Warstwa_2" data-name="Warstwa 2"><g id="Warstwa_1-2" data-name="Warstwa 1"><g id="surface1"><path d="M177.39,600a34.68,34.68,0,0,0,34.69-34.68V213.68c9.93,24,19.18,70.28,14,158.88a22.44,22.44,0,0,0,21.1,23.71c.44,0,.88.05,1.33.05a22.45,22.45,0,0,0,22.38-21.14c6.5-111.17-7.5-183.8-41.62-215.86-13-12.19-25.75-15.67-33.92-16.52a21.76,21.76,0,0,0-4.94-.59H82a22.08,22.08,0,0,0-4.92.58c-8.16.85-21,4.33-33.94,16.53C9.05,191.38-5,264,1.55,375.18a22.44,22.44,0,0,0,22.38,21.14c.44,0,.89,0,1.33-.05a22.43,22.43,0,0,0,21.09-23.71c-5-85.24,3.57-133.38,14-159.07V565.27a34.68,34.68,0,0,0,69.36,0V377.41h13V565.27A34.69,34.69,0,0,0,177.39,600Z"/><path d="M199.33,63.11c0,2.07-.11,4.13-.31,6.19a60.39,60.39,0,0,1-.91,6.13c-.4,2-.9,4-1.5,6s-1.3,3.93-2.09,5.84-1.67,3.77-2.65,5.6-2,3.59-3.18,5.31-2.38,3.37-3.69,5-2.7,3.13-4.16,4.59-3,2.85-4.59,4.16-3.25,2.54-5,3.69-3.49,2.21-5.31,3.18a61.07,61.07,0,0,1-5.61,2.65q-2.87,1.18-5.83,2.09c-2,.6-4,1.1-6,1.51s-4.08.7-6.13.9-4.12.31-6.19.31-4.13-.11-6.18-.31-4.1-.5-6.13-.9-4-.91-6-1.51-3.92-1.3-5.83-2.09a60.9,60.9,0,0,1-5.6-2.65q-2.73-1.45-5.31-3.18t-5-3.69q-2.39-2-4.59-4.16t-4.15-4.59a59.16,59.16,0,0,1-3.69-5Q82,95.6,80.55,92.87c-1-1.83-1.86-3.69-2.65-5.6s-1.48-3.86-2.08-5.84-1.1-4-1.51-6-.7-4.07-.91-6.13-.3-4.12-.3-6.19.1-4.13.3-6.18.51-4.1.91-6.13.91-4,1.51-6S77.11,40.87,77.9,39s1.68-3.78,2.65-5.6,2-3.59,3.19-5.31a59.31,59.31,0,0,1,3.69-5q2-2.38,4.15-4.59t4.59-4.15q2.4-2,5-3.69t5.31-3.19c1.82-1,3.69-1.86,5.6-2.65s3.86-1.48,5.83-2.08,4-1.1,6-1.51S128,.51,130,.3s4.12-.3,6.18-.3,4.13.1,6.19.3,4.1.51,6.13.91,4,.91,6,1.51S158.45,4,160.36,4.8s3.78,1.68,5.61,2.65,3.59,2,5.31,3.19,3.37,2.38,5,3.69,3.13,2.69,4.59,4.15,2.85,3,4.16,4.59,2.54,3.26,3.69,5,2.21,3.49,3.18,5.31a60.9,60.9,0,0,1,2.65,5.6c.79,1.91,1.49,3.86,2.09,5.83s1.1,4,1.5,6a60.39,60.39,0,0,1,.91,6.13C199.22,59,199.33,61.05,199.33,63.11Z"/></g></g></g></svg>