<svg xmlns="http://www.w3.org/2000/svg" viewBox="0 0 620.62 654.83"><g id="Warstwa_2" data-name="Warstwa 2"><g id="Warstwa_1-2" data-name="Warstwa 1"><path d="M227.6,83.05a12.09,12.09,0,0,0-12.07,12.06V138A12.08,12.08,0,0,0,227.6,150H405.5a12.06,12.06,0,0,0,12-12.06V95.11a12.07,12.07,0,0,0-12-12.06H354.1A8.3,8.3,0,0,1,347,70.46a35,35,0,0,0,5.19-18.21,35.63,35.63,0,1,0-71.26,0,35,35,0,0,0,5.19,18.21A8.31,8.31,0,0,1,279,83.05Zm177.9,83.59H227.6A28.7,28.7,0,0,1,198.92,138V95.11A28.71,28.71,0,0,1,227.6,66.43h38.74a50.7,50.7,0,0,1-2-14.18,52.25,52.25,0,0,1,104.5,0,50.73,50.73,0,0,1-2.07,14.18H405.5a28.7,28.7,0,0,1,28.65,28.68V138a28.69,28.69,0,0,1-28.65,28.67"/><path d="M504.09,221.41a8.3,8.3,0,0,1-8.31-8.31V129.94a8.32,8.32,0,0,0-8.31-8.31h-39.1a8.31,8.31,0,1,1,0-16.61h39.1a25,25,0,0,1,24.93,24.92V213.1a8.31,8.31,0,0,1-8.31,8.31"/><path d="M224.46,297.43a8.27,8.27,0,0,1-5.88-2.45l-30.51-30.5a8.31,8.31,0,0,1,11.74-11.77l24.65,24.65,45.91-45.88a8.3,8.3,0,0,1,11.74,11.74L230.32,295a8.19,8.19,0,0,1-5.86,2.45"/><path d="M224.46,403.75a8.27,8.27,0,0,1-5.88-2.45l-30.51-30.5A8.31,8.31,0,0,1,199.81,359l24.65,24.64,45.91-45.88a8.3,8.3,0,0,1,11.74,11.74L230.32,401.3a8.19,8.19,0,0,1-5.86,2.45"/><path d="M224.46,510.08a8.32,8.32,0,0,1-5.88-2.43l-30.51-30.53a8.3,8.3,0,0,1,11.74-11.74L224.46,490l45.91-45.91a8.31,8.31,0,1,1,11.74,11.77l-51.79,51.76a8.25,8.25,0,0,1-5.86,2.43"/><path d="M439.14,271.55H324.33a8.32,8.32,0,0,1,0-16.64H439.14a8.32,8.32,0,0,1,0,16.64"/><path d="M339.48,377.87H324.33a8.31,8.31,0,1,1,0-16.61h15.15a8.31,8.31,0,1,1,0,16.61"/><path d="M439.14,484.2H324.33a8.31,8.31,0,1,1,0-16.62H439.14a8.31,8.31,0,0,1,0,16.62"/><path d="M371.86,393.43l-6.41,33.05,33.05-6.41L558.6,260,532,233.31Zm30.71,34.31h0ZM355,445.29a8.35,8.35,0,0,1-5.88-2.43,8.24,8.24,0,0,1-2.27-7.45L356,387.78a8.43,8.43,0,0,1,2.28-4.3L526.1,215.69a8.53,8.53,0,0,1,11.74,0l38.38,38.4a8.29,8.29,0,0,1,0,11.74L408.45,433.62a8.1,8.1,0,0,1-4.28,2.27l-47.64,9.24a7.12,7.12,0,0,1-1.58.16"/><path d="M562.9,202.37,589.56,229l11-11-26.64-26.64Zm26.66,46.71a8.35,8.35,0,0,1-5.88-2.45l-38.4-38.38a8.3,8.3,0,0,1,0-11.74L568,173.76a8.31,8.31,0,0,1,11.76,0l38.4,38.38a8.3,8.3,0,0,1,0,11.74l-22.77,22.75a8.3,8.3,0,0,1-5.86,2.45"/><path d="M481.89,318.35A8.31,8.31,0,0,1,476,304.16l69.27-69.27a8.31,8.31,0,0,1,11.77,11.74l-69.3,69.29a8.17,8.17,0,0,1-5.86,2.43"/><path d="M402.57,436.05a8.29,8.29,0,0,1-5.86-2.43l-38.4-38.4a8.3,8.3,0,0,1,11.74-11.74l38.4,38.38a8.31,8.31,0,0,1-5.88,14.19"/><path d="M122.76,372.07a5.6,5.6,0,0,1,1.25.15,9,9,0,0,0,1,.17c4,.42,10.15,2.18,16.58,8.22,9.4,8.83,16.21,23.91,20.24,44.82,4.24,22,5.37,50.4,3.37,84.53a5.93,5.93,0,0,1-5.91,5.59H159a24.07,24.07,0,0,1-8.93-3.15c-3.38-1.89-5-3.72-5.44-4.48V408.84a8.17,8.17,0,0,0-8.06-8.17h-.12a8.17,8.17,0,0,0-8.17,7.94c-.41,14.4-.32,28.49-.19,49.81.08,13,.18,29.11.18,49.25q0,.54,0,1.08V630a13.64,13.64,0,0,1-27.28,0V511.84a8.17,8.17,0,0,0-8.17-8.18H84.59a8.18,8.18,0,0,0-8.18,8.18V630a13.64,13.64,0,0,1-27.28,0V510a9.73,9.73,0,0,0,0-1.08V408.72a8.18,8.18,0,1,0-16.35,0V509c-.43.63-2,2.16-5.33,3.81a27.14,27.14,0,0,1-9,2.7h-.36A5.94,5.94,0,0,1,12.13,510c-2-34.13-.86-62.57,3.37-84.53,4-20.91,10.85-36,20.25-44.82,6.43-6.05,12.57-7.81,16.59-8.22.34,0,.68-.1,1-.17a5.59,5.59,0,0,1,1.24-.15h68.17m0-8.18H54.59a13.68,13.68,0,0,0-3.09.36c-5.14.53-13.18,2.72-21.35,10.4C8.69,394.82-.12,440.5,4,510.44a14.12,14.12,0,0,0,14.08,13.29l.83,0c7.55-.44,21.64-6.44,22.08-13.9v-.7c0,.23,0,.47,0,.7V630a21.82,21.82,0,1,0,43.63,0V511.84h8.18V630a21.82,21.82,0,1,0,43.63,0V508.57c0-.24,0-.48,0-.71,0-52.1-.65-75.69,0-99v99.73c.43,7.53,14.52,14.69,22.07,15.13l.84,0a14.12,14.12,0,0,0,14.08-13.29c4.09-69.94-4.72-115.62-26.18-135.79-8.16-7.67-16.2-9.86-21.34-10.39a13.24,13.24,0,0,0-3.11-.37Z"/><path d="M114.58,654.83A24.85,24.85,0,0,1,89.77,630V514.84H87.59V630A24.82,24.82,0,1,1,38,630V519.51a38.7,38.7,0,0,1-18.9,7.19c-.32,0-.67,0-1,0A17.13,17.13,0,0,1,1,510.61c-4.14-70.86,5-117.34,27.12-138.15,8.62-8.09,17.19-10.55,22.92-11.17a16.3,16.3,0,0,1,3.58-.4h68.17a16.57,16.57,0,0,1,3.61.4c5.72.63,14.29,3.09,22.89,11.17,22.14,20.81,31.27,67.29,27.12,138.15a17.11,17.11,0,0,1-17.07,16.12l-1.05,0c-5.2-.31-13.32-3.41-18.86-8.05V630A24.85,24.85,0,0,1,114.58,654.83Zm-33-146H95.77V630a18.82,18.82,0,1,0,37.63,0V508.64c0-.28,0-.57,0-.86,0-20.21-.1-36.39-.18-49.4-.13-21.26-.22-35.31.18-49.62l6,.08v99.63c.4,5.08,12.1,11.82,19.25,12.24l.66,0a11.12,11.12,0,0,0,11.08-10.47c4-69-4.45-113.9-25.24-133.42-7.47-7-14.78-9.1-19.59-9.6l-.37-.06a10.82,10.82,0,0,0-2.43-.29H54.59a10.69,10.69,0,0,0-2.41.28l-.37.07c-4.81.49-12.12,2.56-19.61,9.6C11.42,396.37,2.93,441.26,7,510.26a11.13,11.13,0,0,0,11.09,10.47l.63,0c6.85-.4,18.87-6,19.28-11v-101h6V509c0,.29,0,.57,0,.86V630a18.82,18.82,0,1,0,37.63,0Zm33,137.81A16.67,16.67,0,0,1,97.94,630V511.84a5.18,5.18,0,0,0-5.17-5.18H84.59a5.18,5.18,0,0,0-5.18,5.18V630a16.64,16.64,0,0,1-33.28,0V509.88c0-.29,0-.57,0-.86V408.72a5.18,5.18,0,1,0-10.35,0V510l-.53.77c-.51.74-2.17,2.7-6.49,4.81a29.55,29.55,0,0,1-10.18,3c-.1,0-.26,0-.53,0a8.94,8.94,0,0,1-8.91-8.42c-2-34.37-.86-63.06,3.42-85.27,4.15-21.54,11.26-37.16,21.13-46.44,7.05-6.62,13.86-8.56,18.34-9,.22,0,.43-.06.64-.1a8.05,8.05,0,0,1,1.92-.23h68.17a8.34,8.34,0,0,1,1.94.23c.21.05.42.08.64.11,4.48.46,11.29,2.4,18.32,9,9.87,9.28,17,24.9,21.14,46.44,4.28,22.21,5.43,50.9,3.42,85.28a8.94,8.94,0,0,1-8.91,8.41h-.49A26.85,26.85,0,0,1,148.54,515c-3.77-2.12-5.89-4.33-6.61-5.69l-.35-.66V408.84a5.18,5.18,0,0,0-10.35-.14c-.41,14.36-.32,28.42-.19,49.7.08,13,.18,29.1.18,49.27v.11c0,.29,0,.57,0,.86V630A16.65,16.65,0,0,1,114.58,646.65Zm-30-146h8.18a11.19,11.19,0,0,1,11.17,11.18V630a10.64,10.64,0,0,0,21.28,0V508.81q0-.6,0-1.2c0-20.12-.1-36.23-.18-49.17-.13-21.35-.22-35.44.19-49.91a11.12,11.12,0,0,1,11.17-10.86h.15a11.22,11.22,0,0,1,11,11.17v98.08a17.24,17.24,0,0,0,3.91,2.86,21.39,21.39,0,0,0,7.63,2.76h.11a3,3,0,0,0,3-2.76c2-33.88.86-62.07-3.32-83.79-3.91-20.28-10.42-34.81-19.36-43.2-5.81-5.47-11.27-7.06-14.83-7.43a9.16,9.16,0,0,1-1.39-.23,2.52,2.52,0,0,0-.57-.07H54.59a2.44,2.44,0,0,0-.56.07,12.81,12.81,0,0,1-1.38.23c-3.56.37-9,1.95-14.85,7.43-8.93,8.39-15.44,22.92-19.35,43.2-4.19,21.71-5.31,49.9-3.32,83.78a2.93,2.93,0,0,0,2.92,2.77h.13a23.92,23.92,0,0,0,8-2.41,16.22,16.22,0,0,0,3.65-2.29V408.72a11.18,11.18,0,1,1,22.35,0V508.86a11.61,11.61,0,0,1,0,1.18V630a10.64,10.64,0,0,0,21.28,0V511.84A11.2,11.2,0,0,1,84.59,500.66Z"/><path d="M84,348.36c-1.43,0-2.88-.07-4.3-.21s-2.83-.35-4.25-.63-2.78-.63-4.16-1A41.37,41.37,0,0,1,67.21,345c-1.32-.54-2.63-1.16-3.89-1.83s-2.48-1.41-3.68-2.21a41,41,0,0,1-3.45-2.56c-1.1-.9-2.17-1.87-3.18-2.88s-2-2.09-2.9-3.19-1.76-2.27-2.55-3.45a41.84,41.84,0,0,1-2.21-3.69,40.58,40.58,0,0,1-1.84-3.89,42.3,42.3,0,0,1-1.45-4c-.41-1.35-.76-2.76-1-4.17a41.8,41.8,0,0,1-.63-4.25c-.14-1.42-.21-2.86-.21-4.29s.07-2.87.21-4.29A42.42,42.42,0,0,1,41,296c.28-1.4.63-2.81,1-4.17s.9-2.72,1.45-4,1.17-2.63,1.84-3.89,1.41-2.48,2.21-3.68a41,41,0,0,1,2.56-3.45,43.53,43.53,0,0,1,6.07-6.07c1.09-.9,2.26-1.76,3.45-2.56s2.44-1.54,3.69-2.21,2.56-1.29,3.88-1.84,2.68-1,4.05-1.45,2.75-.76,4.16-1,2.82-.49,4.25-.63a44,44,0,0,1,8.59,0c1.44.14,2.87.36,4.25.63a41.68,41.68,0,0,1,4.17,1.05c1.36.41,2.72.89,4,1.44s2.62,1.17,3.88,1.84,2.5,1.42,3.69,2.21,2.34,1.65,3.45,2.56,2.17,1.87,3.18,2.88,2,2.1,2.89,3.19,1.76,2.27,2.56,3.45,1.54,2.44,2.21,3.69a40.64,40.64,0,0,1,1.83,3.89c.54,1.3,1,2.66,1.45,4s.77,2.79,1,4.18.49,2.85.63,4.26.21,2.85.21,4.28-.08,2.87-.22,4.29a42.27,42.27,0,0,1-.62,4.25c-.28,1.39-.63,2.79-1,4.17a41.52,41.52,0,0,1-1.45,4.05,43,43,0,0,1-1.84,3.89c-.67,1.25-1.41,2.49-2.2,3.68s-1.65,2.34-2.56,3.45a45,45,0,0,1-6.07,6.07c-1.12.91-2.28,1.77-3.45,2.56s-2.43,1.54-3.69,2.21-2.57,1.29-3.89,1.84-2.67,1-4,1.45-2.79.76-4.17,1-2.85.49-4.26.63S85.39,348.36,84,348.36ZM84,269a33.84,33.84,0,0,0-3.49.17c-1.17.11-2.33.29-3.46.51s-2.29.52-3.39.85a33.84,33.84,0,0,0-3.29,1.18,32.55,32.55,0,0,0-3.16,1.49c-1,.54-2,1.15-3,1.8s-1.91,1.35-2.81,2.08-1.76,1.52-2.59,2.35-1.62,1.7-2.34,2.58a33.56,33.56,0,0,0-2.08,2.82c-.65,1-1.26,2-1.8,3a32.55,32.55,0,0,0-1.49,3.16,32.23,32.23,0,0,0-1.18,3.29,34.28,34.28,0,0,0-.85,3.39,32.76,32.76,0,0,0-.51,3.46,33.92,33.92,0,0,0,0,7,32.19,32.19,0,0,0,.51,3.45,36.4,36.4,0,0,0,2,6.68c.45,1.08.95,2.14,1.5,3.17s1.15,2,1.8,3,1.34,1.9,2.08,2.8a33.75,33.75,0,0,0,2.34,2.59c.83.83,1.71,1.62,2.59,2.35s1.85,1.43,2.81,2.08,2,1.25,3,1.79a33.61,33.61,0,0,0,3.15,1.5c1.07.44,2.18.84,3.3,1.18s2.26.62,3.39.85a34.6,34.6,0,0,0,3.45.51,35.49,35.49,0,0,0,7,0c1.14-.11,2.3-.28,3.46-.51s2.26-.51,3.39-.85a34.63,34.63,0,0,0,3.28-1.18,32.55,32.55,0,0,0,3.16-1.49c1-.55,2-1.16,3-1.8s1.9-1.34,2.81-2.08,1.77-1.53,2.59-2.35,1.61-1.69,2.35-2.59,1.44-1.85,2.08-2.8,1.25-2,1.79-3,1-2.09,1.5-3.16.84-2.18,1.18-3.29.62-2.27.85-3.39.4-2.31.51-3.45.17-2.34.17-3.5-.06-2.33-.17-3.49-.29-2.31-.51-3.46-.51-2.27-.85-3.39-.74-2.22-1.18-3.29-1-2.14-1.49-3.15-1.15-2-1.8-3-1.35-1.92-2.09-2.82-1.52-1.75-2.35-2.59-1.68-1.6-2.58-2.34-1.85-1.44-2.81-2.08a34.49,34.49,0,0,0-6.15-3.29c-1.08-.45-2.19-.84-3.29-1.18s-2.25-.62-3.39-.85-2.29-.4-3.46-.51A34,34,0,0,0,84,269Z"/><path d="M84,351.36c-1.53,0-3.07-.08-4.59-.23a45.64,45.64,0,0,1-4.54-.67c-1.48-.29-3-.67-4.45-1.11s-2.93-1-4.33-1.55-2.82-1.25-4.16-2-2.65-1.5-3.93-2.36a42.71,42.71,0,0,1-3.68-2.73,45,45,0,0,1-3.4-3.08c-1.09-1.09-2.13-2.23-3.1-3.41s-1.88-2.42-2.73-3.68-1.64-2.59-2.36-3.94-1.38-2.75-2-4.16a44.63,44.63,0,0,1-1.55-4.33,45.2,45.2,0,0,1-1.11-4.45,44.51,44.51,0,0,1-.68-4.53c-.15-1.52-.22-3.07-.22-4.59s.07-3.07.22-4.59a44.9,44.9,0,0,1,.68-4.55c.3-1.5.67-3,1.11-4.45a45.42,45.42,0,0,1,1.55-4.32c.58-1.41,1.25-2.81,2-4.16a44.15,44.15,0,0,1,2.35-3.92,45.34,45.34,0,0,1,2.74-3.7c1-1.15,2-2.3,3.07-3.39s2.26-2.14,3.42-3.09A45,45,0,0,1,58,265.66c1.28-.85,2.61-1.64,4-2.36a45,45,0,0,1,4.15-2c1.4-.58,2.85-1.1,4.32-1.55s2.94-.81,4.45-1.11a44.29,44.29,0,0,1,4.54-.67,46.06,46.06,0,0,1,9.17,0,45.79,45.79,0,0,1,9,1.79c1.46.44,2.91,1,4.33,1.54a46.9,46.9,0,0,1,15.17,10.14c1.09,1.09,2.12,2.23,3.08,3.4s1.89,2.43,2.74,3.7a47.63,47.63,0,0,1,4.33,8.09c.57,1.39,1.09,2.84,1.54,4.31a46,46,0,0,1,1.79,9c.15,1.5.23,3,.23,4.57s-.08,3.07-.23,4.59-.37,3-.67,4.53a45.45,45.45,0,0,1-1.12,4.46,44.63,44.63,0,0,1-1.55,4.33c-.58,1.4-1.24,2.8-2,4.15s-1.51,2.67-2.36,3.94-1.76,2.49-2.73,3.68-2,2.34-3.09,3.41-2.22,2.11-3.4,3.08-2.43,1.89-3.69,2.73a47.63,47.63,0,0,1-8.09,4.33c-1.4.58-2.85,1.1-4.32,1.55s-3,.82-4.46,1.11a44.57,44.57,0,0,1-4.55.67C87,351.28,85.49,351.36,84,351.36Zm0-87.58c-1.33,0-2.67.07-4,.2s-2.68.33-4,.58-2.62.59-3.88,1-2.55.85-3.77,1.35a39.82,39.82,0,0,0-3.61,1.71c-1.18.63-2.33,1.32-3.44,2.06s-2.19,1.55-3.22,2.39-2,1.73-3,2.69-1.85,1.95-2.68,3A40.6,40.6,0,0,0,48,285.33c-.63,1.18-1.21,2.39-1.72,3.62s-1,2.5-1.35,3.77-.71,2.57-1,3.88-.45,2.63-.59,4-.19,2.67-.19,4,.06,2.67.19,4,.33,2.67.59,3.95a40,40,0,0,0,1,3.88c.39,1.28.84,2.55,1.35,3.77A38.81,38.81,0,0,0,48,323.8a39.41,39.41,0,0,0,2.06,3.43c.74,1.1,1.54,2.18,2.38,3.21s1.75,2,2.7,3,1.94,1.84,3,2.68,2.11,1.64,3.21,2.38,2.27,1.44,3.43,2.06a39.86,39.86,0,0,0,3.62,1.71c1.23.51,2.5,1,3.78,1.36s2.59.71,3.88,1a39.2,39.2,0,0,0,3.95.58,41.12,41.12,0,0,0,8,0,38.57,38.57,0,0,0,4-.58c1.29-.26,2.6-.59,3.89-1s2.54-.84,3.76-1.34a39.94,39.94,0,0,0,3.62-1.72c1.18-.62,2.33-1.32,3.44-2.05s2.18-1.54,3.22-2.39,2-1.75,3-2.69,1.84-1.93,2.69-3a38.57,38.57,0,0,0,2.38-3.21c.74-1.1,1.43-2.26,2.06-3.43a39.86,39.86,0,0,0,1.71-3.62c.51-1.23,1-2.5,1.35-3.77a41.24,41.24,0,0,0,1.56-7.84c.13-1.33.2-2.67.2-4s-.07-2.67-.2-4A40.15,40.15,0,0,0,121.65,289a40.79,40.79,0,0,0-3.77-7.06c-.74-1.11-1.54-2.19-2.38-3.22s-1.75-2-2.69-3-1.94-1.84-3-2.68-2.12-1.65-3.22-2.39a39.81,39.81,0,0,0-3.43-2,38.49,38.49,0,0,0-3.62-1.71,36.82,36.82,0,0,0-3.77-1.35,38.59,38.59,0,0,0-3.88-1,39.53,39.53,0,0,0-4-.59C86.64,263.85,85.3,263.78,84,263.78Zm0,79.4a36.71,36.71,0,0,1-3.79-.19,35,35,0,0,1-3.75-.55c-1.22-.24-2.45-.55-3.67-.92s-2.42-.8-3.58-1.28-2.31-1-3.42-1.62a36.13,36.13,0,0,1-3.24-1.95,37.44,37.44,0,0,1-3.05-2.25c-1-.79-1.9-1.64-2.8-2.54a35.84,35.84,0,0,1-2.55-2.82,37.4,37.4,0,0,1-2.26-3c-.7-1-1.36-2.14-2-3.25s-1.14-2.26-1.62-3.43S47.38,317,47,315.77a36.62,36.62,0,0,1-.91-3.68,34.71,34.71,0,0,1-.56-3.74c-.12-1.25-.19-2.52-.19-3.78s.07-2.53.19-3.78a38.25,38.25,0,0,1,2.76-11,34.56,34.56,0,0,1,1.62-3.43c.58-1.09,1.24-2.19,1.94-3.24a37.56,37.56,0,0,1,2.26-3.05c.78-1,1.64-1.9,2.53-2.8s1.87-1.77,2.82-2.55,2-1.55,3-2.26,2.16-1.36,3.26-1.95,2.26-1.13,3.43-1.62,2.35-.9,3.56-1.27,2.43-.67,3.68-.92,2.47-.43,3.74-.56a39.89,39.89,0,0,1,7.57,0c1.27.13,2.53.32,3.75.56s2.49.56,3.68.92a38.63,38.63,0,0,1,7,2.9c1.11.59,2.2,1.24,3.25,1.94a37.08,37.08,0,0,1,3,2.27c1,.79,1.91,1.64,2.8,2.53s1.76,1.85,2.54,2.81a38.51,38.51,0,0,1,4.21,6.31,38.94,38.94,0,0,1,2.9,7c.36,1.22.67,2.45.92,3.68a37.67,37.67,0,0,1,.55,3.75,37.8,37.8,0,0,1,0,7.57c-.12,1.23-.3,2.49-.55,3.74s-.55,2.46-.92,3.67-.8,2.42-1.28,3.58-1,2.31-1.62,3.42-1.25,2.2-2,3.25-1.45,2.06-2.25,3-1.66,1.93-2.55,2.81-1.83,1.74-2.8,2.54a37.47,37.47,0,0,1-3,2.26,35.82,35.82,0,0,1-3.25,1.95,37,37,0,0,1-3.43,1.62c-1.16.48-2.36.91-3.56,1.28s-2.46.68-3.68.92a37.73,37.73,0,0,1-3.75.56Q85.86,343.18,84,343.18ZM84,272c-1.07,0-2.14.05-3.2.15s-2.14.27-3.16.47a30.54,30.54,0,0,0-3.1.78,30.91,30.91,0,0,0-3,1.08,31.81,31.81,0,0,0-2.89,1.36c-.93.5-1.86,1.06-2.75,1.65s-1.75,1.24-2.57,1.91a31.8,31.8,0,0,0-2.38,2.16,29.6,29.6,0,0,0-2.14,2.36c-.67.82-1.32,1.68-1.91,2.57a29.6,29.6,0,0,0-1.64,2.74,29.28,29.28,0,0,0-1.37,2.89c-.41,1-.77,2-1.08,3a31.93,31.93,0,0,0-.78,3.1c-.21,1-.36,2.1-.47,3.18s-.16,2.13-.16,3.19.06,2.14.16,3.2.26,2.13.47,3.15A33.41,33.41,0,0,0,53.83,317c.41,1,.87,2,1.37,2.9s1.06,1.86,1.65,2.75,1.23,1.74,1.91,2.57,1.4,1.62,2.14,2.37,1.57,1.49,2.38,2.15,1.68,1.31,2.57,1.91,1.81,1.14,2.74,1.64,1.91,1,2.89,1.37,2,.77,3,1.08,2.06.57,3.09.78,2.12.36,3.16.46a32.59,32.59,0,0,0,6.4,0,31.44,31.44,0,0,0,3.17-.46c1-.21,2.08-.47,3.11-.78s2-.67,3-1.08,2-.87,2.9-1.37,1.86-1.05,2.75-1.64,1.74-1.23,2.57-1.91,1.62-1.4,2.37-2.15,1.47-1.55,2.15-2.37,1.32-1.7,1.9-2.57,1.15-1.81,1.65-2.75a31.47,31.47,0,0,0,1.36-2.88c.41-1,.78-2,1.09-3a30.5,30.5,0,0,0,.77-3.1,32.56,32.56,0,0,0,.63-6.36,30.83,30.83,0,0,0-.16-3.19,32.1,32.1,0,0,0-.47-3.18,29.29,29.29,0,0,0-.78-3.1c-.31-1-.67-2-1.07-3a31.88,31.88,0,0,0-1.37-2.89,30.94,30.94,0,0,0-1.65-2.76,30,30,0,0,0-1.91-2.57c-.66-.81-1.39-1.61-2.15-2.38s-1.54-1.46-2.36-2.13-1.69-1.33-2.57-1.92-1.81-1.14-2.75-1.64-1.91-1-2.89-1.37-2-.77-3-1.08-2.06-.56-3.11-.77-2.1-.37-3.17-.48S85,272,84,272Z"/><path d="M128.73,236.73V129.94a8.32,8.32,0,0,1,8.31-8.31h49.84a8.31,8.31,0,1,0,0-16.61H137a25,25,0,0,0-24.92,24.92V236.73Z"/><path d="M504.09,354a8.3,8.3,0,0,0-8.31,8.31v211.3a8.32,8.32,0,0,1-8.31,8.3H162.83v16.62H487.47a25,25,0,0,0,24.93-24.92V362.31A8.31,8.31,0,0,0,504.09,354Z"/></g></g></svg>