<svg xmlns="http://www.w3.org/2000/svg" viewBox="0 0 599.96 543.25"><g id="Warstwa_2" data-name="Warstwa 2"><g id="Warstwa_1-2" data-name="Warstwa 1"><path d="M456.5,147.43a73.72,73.72,0,1,1,73.71-73.72A73.8,73.8,0,0,1,456.5,147.43ZM456.5,17a56.72,56.72,0,1,0,56.71,56.71A56.78,56.78,0,0,0,456.5,17Z"/><path d="M293.46,512.62a41.14,41.14,0,0,1-41.1-41.1,39.86,39.86,0,0,1,.74-7.7l19.66-116.73-96-65.3A61.06,61.06,0,0,1,148,230.23a60.44,60.44,0,0,1,25.58-49.43c.2-.19.4-.37.62-.55L283,92.6a54,54,0,0,1,81.25,9.25l70.08,80.75h80.9a41.11,41.11,0,0,1,0,82.21H417.37A34.57,34.57,0,0,1,389.9,251.2l-.14-.14-48.62-53.79-57,50.3L345.74,293c.21.16.41.32.61.5a34.51,34.51,0,0,1,14.3,28,36.67,36.67,0,0,1-.47,5.69c0,.16,0,.31-.06.46L334.47,474.3A41.15,41.15,0,0,1,293.46,512.62Zm-107.56-320a8.51,8.51,0,0,1-1.62,1.42A43.45,43.45,0,0,0,165,230.23a43.94,43.94,0,0,0,20.86,37.18l.34.21L286.83,336.1a8.52,8.52,0,0,1,3.6,8.44L269.85,466.76c0,.09,0,.17-.05.25a22.83,22.83,0,0,0-.44,4.51,24.1,24.1,0,0,0,48.17,1.3c0-.33.06-.66.11-1l25.68-146.77c0-.1,0-.2,0-.3a20.36,20.36,0,0,0,.29-3.24A17.51,17.51,0,0,0,336,307a8.84,8.84,0,0,1-1-.81L265.59,255a8.49,8.49,0,0,1-.58-13.21L336.19,179a8.5,8.5,0,0,1,11.93.67l53.79,59.5a8.85,8.85,0,0,1,1.22,1.37,17.56,17.56,0,0,0,14.24,7.3h97.82a24.11,24.11,0,0,0,0-48.21H430.41a8.52,8.52,0,0,1-6.42-2.93l-73-84.06a10.77,10.77,0,0,1-.65-.86,37,37,0,0,0-56.06-6.5c-.15.14-.31.27-.47.4ZM288.52,99h0Z"/><path d="M117.39,308.48C52.73,308.48,0,361.21,0,425.87S52.73,543.25,117.39,543.25s117.38-52.73,117.38-117.38S182,308.48,117.39,308.48Zm0,208.68a91.3,91.3,0,1,1,91.29-91.29A91.07,91.07,0,0,1,117.39,517.16Z"/><path d="M482.58,308.48c-64.65,0-117.38,52.73-117.38,117.39s52.73,117.38,117.38,117.38S600,490.52,600,425.87,547.23,308.48,482.58,308.48Zm0,208.68a91.3,91.3,0,1,1,91.3-91.29A91.08,91.08,0,0,1,482.58,517.16Z"/></g></g></svg>