<svg xmlns="http://www.w3.org/2000/svg" viewBox="0 0 346.52 581.81"><g id="Warstwa_2" data-name="Warstwa 2"><g id="Warstwa_1-2" data-name="Warstwa 1"><path d="M46.26,282.36c-13.51-4.93-22.67-13.07-27.64-24.61C5.11,263,0,283.41,0,283.41c11.61,7.74,32.75,9.74,48.26,10.06l19.65,69.08,6.15-11.91Z"/><path d="M246,200.13l-19-1.36,1.59-4.18-15.85,4.11-1.42,3.7a6.68,6.68,0,0,0,5.76,9l32.59,2.33,17.56,65.13a7.89,7.89,0,0,0-4.89,2.32L243,300.75a8,8,0,0,0,3.63,13.35l26.6,7a7.89,7.89,0,0,0,2.08.28,7.76,7.76,0,0,0,3.22-.72l12.17,45.14a17,17,0,0,1,.33,7.3l-6,34-.9,5-5.5-1a8.09,8.09,0,0,0-6.66,1.65c-12.6,10.44-40.3,11.23-40.3,11.23l-67.54-17.75A73.92,73.92,0,0,0,126.81,392l-9,17.51c.71,0,1.41-.05,2.13-.05a56.65,56.65,0,1,1-41.64,95l23.11-14.86a30,30,0,1,0-1.22-46l-10.07,19.5c-.09,1-.15,2-.15,3a29.82,29.82,0,0,0,1.45,9.16l22.95-14.75a4.45,4.45,0,0,1,4.81,7.48L70.24,499.4a11.23,11.23,0,0,1-1.33,20.89,74.72,74.72,0,0,0,10.93,8.52H68.69A53.63,53.63,0,0,0,34.27,541.4a20.2,20.2,0,0,0-19.52,20.18,19.83,19.83,0,0,0,.3,3.29l-.21.28.28.22A20.22,20.22,0,1,0,54,554.77a31.15,31.15,0,0,1,14.68-3.72h223.9a31.21,31.21,0,0,1,14.68,3.72,20.22,20.22,0,1,0,38.89,10.6l.28-.22-.21-.28a19.73,19.73,0,0,0,.29-3.29A20.19,20.19,0,0,0,327,541.4a53.67,53.67,0,0,0-34.42-12.59h-6.77l21.1-103.88a8.3,8.3,0,0,0-6.61-9.8l-3.07-.58.89-5,6-34.09a30.29,30.29,0,0,0-.57-13.09L256.41,187.41l-12.92,3.34Zm30.17,114.19a1.29,1.29,0,0,1-1.27.34l-26.6-7a1.28,1.28,0,0,1-.94-.93,1.27,1.27,0,0,1,.33-1.27l19.38-19.53a1.27,1.27,0,0,1,.92-.4,1.63,1.63,0,0,1,.35.05,1.3,1.3,0,0,1,.94.93l.23.85,7,26.12A1.3,1.3,0,0,1,276.19,314.32Z"/><path d="M315.18,150.45,325.3,126a6.68,6.68,0,0,0-12.34-5.1l-9,21.68-20.58,7.22a22.64,22.64,0,0,1,3.4,12.94l24.41-8.56A6.63,6.63,0,0,0,315.18,150.45Z"/><path d="M166,95.16h-.46c-1.54,0-3.11-.11-4.66-.27s-3.09-.42-4.62-.74-3-.71-4.52-1.18-2.95-1-4.38-1.62-2.84-1.29-4.2-2-2.71-1.58-4-2.45a46.65,46.65,0,0,1-3.72-2.82c-1.17-1-2.33-2-3.42-3.16s-2.12-2.27-3.1-3.49-1.89-2.47-2.74-3.77-1.65-2.67-2.37-4-1.38-2.82-2-4.25-1.09-2.91-1.53-4.4-.8-3-1.09-4.54-.5-3.07-.63-4.63-.2-3.14-.19-4.68.11-3.13.28-4.66.41-3.06.73-4.6.72-3,1.18-4.51a46.11,46.11,0,0,1,1.62-4.4c.6-1.4,1.28-2.82,2-4.18s1.57-2.71,2.44-4,1.83-2.54,2.82-3.73,2.09-2.36,3.17-3.43,2.31-2.15,3.5-3.1,2.48-1.9,3.78-2.75,2.64-1.63,4-2.36,2.8-1.37,4.24-1.95,2.91-1.09,4.41-1.53,3-.8,4.54-1.09,3.08-.5,4.63-.64S164.88,0,166.43,0s3.11.11,4.66.28a45.42,45.42,0,0,1,4.62.73c1.53.32,3,.72,4.52,1.18s3,1,4.37,1.61,2.89,1.32,4.22,2.05a46.61,46.61,0,0,1,4,2.44c1.27.87,2.52,1.81,3.71,2.81s2.35,2.07,3.43,3.17,2.13,2.28,3.1,3.49,1.91,2.5,2.75,3.79,1.65,2.66,2.36,4,1.36,2.78,1.95,4.23a46.71,46.71,0,0,1,1.53,4.44c.43,1.46.8,3,1.09,4.52s.5,3.11.64,4.63a45,45,0,0,1,.18,4.66c0,1.55-.11,3.11-.27,4.66s-.42,3.13-.74,4.62a44.14,44.14,0,0,1-1.18,4.52c-.46,1.48-1,2.95-1.61,4.37s-1.3,2.85-2,4.2-1.56,2.71-2.43,4-1.83,2.54-2.82,3.73-2.07,2.34-3.18,3.43a45.59,45.59,0,0,1-3.49,3.1A45,45,0,0,1,192,87.4a46.08,46.08,0,0,1-4,2.37c-1.39.72-2.82,1.38-4.25,2s-2.9,1.09-4.4,1.53-3,.8-4.54,1.09-3.06.5-4.63.64C168.77,95.1,167.35,95.16,166,95.16ZM166,14c-1,0-2,0-3,.13s-2.2.25-3.26.45-2.16.46-3.23.77-2.09.67-3.1,1.08-2,.87-3,1.38-1.93,1.07-2.84,1.66a32.51,32.51,0,0,0-2.67,1.94c-.84.67-1.67,1.41-2.48,2.2s-1.51,1.56-2.23,2.42a32.77,32.77,0,0,0-2,2.62c-.61.9-1.19,1.85-1.72,2.81s-1,1.95-1.43,2.95-.82,2.05-1.15,3.1-.6,2.11-.83,3.19-.4,2.18-.51,3.25a32.46,32.46,0,0,0-.2,3.29c0,1.09,0,2.19.13,3.3s.25,2.19.45,3.26h0a32.18,32.18,0,0,0,.77,3.19,32.8,32.8,0,0,0,1.08,3.12c.4,1,.87,2,1.38,3S137.25,65,137.86,66s1.25,1.81,1.93,2.66,1.43,1.68,2.19,2.46,1.58,1.53,2.41,2.23a32.29,32.29,0,0,0,2.62,2c.92.62,1.86,1.2,2.82,1.73a32.32,32.32,0,0,0,3,1.43,29.26,29.26,0,0,0,3.08,1.14,30.78,30.78,0,0,0,3.2.84c1.08.23,2.17.4,3.25.52s2.21.18,3.29.19a32.63,32.63,0,0,0,3.3-.13c1.1-.1,2.2-.25,3.26-.45a31.8,31.8,0,0,0,3.2-.77c1.07-.31,2.11-.67,3.11-1.07a32.61,32.61,0,0,0,3-1.39c1-.5,1.91-1.06,2.84-1.66s1.82-1.26,2.67-1.94,1.69-1.43,2.45-2.18a32.2,32.2,0,0,0,2.25-2.43c.7-.84,1.37-1.73,2-2.63s1.19-1.85,1.73-2.81,1-2,1.43-3,.81-2,1.14-3.08a31.79,31.79,0,0,0,.83-3.19c.22-1.05.4-2.15.52-3.26a32.79,32.79,0,0,0,.19-3.28c0-1.11,0-2.22-.12-3.29s-.25-2.18-.46-3.29-.46-2.13-.76-3.18-.67-2.09-1.09-3.13-.88-2-1.37-3-1.06-1.92-1.67-2.85a30.55,30.55,0,0,0-1.94-2.66,33.47,33.47,0,0,0-4.61-4.71,30.12,30.12,0,0,0-2.63-2,32.18,32.18,0,0,0-2.79-1.72c-.95-.52-1.95-1-3-1.45A32.5,32.5,0,0,0,176,15.55c-1-.33-2.11-.61-3.19-.84s-2.15-.39-3.26-.52S167.39,14,166.3,14Z"/><path d="M55.51,506.29H39.71a8,8,0,0,1-2.52-.4A35,35,0,0,1,32,503.75a35.79,35.79,0,0,1-15.38-48.23l54.24-105L44.06,284.62C22,276.08,11,258.53,11.29,232.38c0-.2,0-.4,0-.61C15.65,181.86,24.94,152.28,49.58,110c19.34-32.74,52.84-39.35,74.56-28.95,17.16,8.22,18.14,35.73,17.77,47.14l31.71,30.31,83.85-21.69a25.8,25.8,0,0,1,31.43,18.51h0a25.78,25.78,0,0,1-18.52,31.42l-97.76,25.29a25.8,25.8,0,0,1-24.3-6.35l-22.43-21.44c-5.19,12.19-10.84,25.86-15.06,38.53l57.4,8.61A35.71,35.71,0,0,1,199,263.14l12.36,118a35.71,35.71,0,0,1-15.8,33.54,8,8,0,0,1-6.46,1.08l-24.87-6.54a8.09,8.09,0,0,1-2.64-1.24,71.53,71.53,0,0,0-15.6-8.51,8,8,0,0,1-4.8-5.38,35.88,35.88,0,0,1-1-5.47l-1.4-13.4L80.27,488.37a36.93,36.93,0,0,1-3,4.81,8.07,8.07,0,0,1-2.12,2L59.83,505A8,8,0,0,1,55.51,506.29Zm-14.43-16H53.16l12-7.7c.33-.53.64-1,.91-1.58l61.79-119.66a19.75,19.75,0,0,0,.75-16.55l-21.47-52.73a8,8,0,0,1,8.23-11l23.45,2.44a8,8,0,0,1,7.13,7.12l10,95.69a87.61,87.61,0,0,1,13.7,7.76l19.63,5.17a19.74,19.74,0,0,0,6.12-16.47l-12.36-118a19.76,19.76,0,0,0-17-17.56h-.11l-66.66-10a8,8,0,0,1-6.51-10.1C98,208.83,107,187.76,114.23,170.83l1.49-3.47a8,8,0,0,1,12.88-2.63l30.78,29.42a9.77,9.77,0,0,0,6.78,2.73,9.44,9.44,0,0,0,2.44-.31l97.78-25.29a9.79,9.79,0,0,0-4.9-19l-88.16,22.81a8,8,0,0,1-7.53-2l-37.58-35.91a8,8,0,0,1-2.45-6.39c1.26-16.93-2.48-32.46-8.53-35.36-15.31-7.32-39.38-1.89-53.85,22.62-23.48,40.27-31.94,67.14-36.1,114.73-.17,26.13,13.44,34,25.33,37.83a8,8,0,0,1,4.92,4.59l29.56,72.61a8,8,0,0,1-.3,6.69L30.87,462.86a19.79,19.79,0,0,0,8.5,26.68A18.58,18.58,0,0,0,41.08,490.29ZM127,298.38l5,12.19-1.24-11.8Z"/><path d="M33.43,503.41a6.18,6.18,0,0,0,0,12.36h32a6.18,6.18,0,1,0,0-12.36Z"/></g></g></svg>