<svg xmlns="http://www.w3.org/2000/svg" viewBox="0 0 595.98 476.89"><g id="Warstwa_2" data-name="Warstwa 2"><g id="Warstwa_1-2" data-name="Warstwa 1"><path d="M246.65,456.21a9.29,9.29,0,1,1,9.3-9.31A9.3,9.3,0,0,1,246.65,456.21Zm0-39.28a30,30,0,1,0,30,30,30,30,0,0,0-30-30"/><path d="M493,456.21a9.29,9.29,0,1,1,9.31-9.31A9.28,9.28,0,0,1,493,456.21Zm0-39.28a30,30,0,1,0,30,30,30,30,0,0,0-30-30"/><path d="M501.25,120.66,462,316.84l16.65,3.34L517.89,124l-16.64-3.33"/><path d="M407,110.35,394,318l17,1,12.94-207.62L407,110.35"/><path d="M312.89,99.94,326.25,319l16.95-1L329.82,98.91l-16.93,1"/><path d="M218.89,89.42,258.59,320l16.72-2.88L235.63,86.54l-16.74,2.88"/><path d="M165.91,213.66,562.5,229.72l.7-17L166.59,196.68l-.68,17"/><path d="M589.53,121.34a25.55,25.55,0,0,0-16.41-7.8L153.58,72.89l-4.79-21h0A48.18,48.18,0,0,0,135,28.25c-6.5-6.19-14.45-11.07-24.11-13L94.29,12.41a23.08,23.08,0,0,0-4-1L55.66,5.7l-.2,0h-.08L23.05.33C12-1.49,1.7,4.51.18,13.67S6.51,31.78,17.54,33.6l56.11,9.24,30.91,5.81a15.32,15.32,0,0,1,6.84,4.05c2.46,2.31,4.06,5.34,4.28,6.67l55.25,243h0a33,33,0,0,1,.62,6.93,58,58,0,0,1-1.13,11.26,37,37,0,0,1-2.69,8.61l-15.37,31a33.62,33.62,0,0,0-3.67,14.91,27.59,27.59,0,0,0,2.38,11.36A27.29,27.29,0,0,0,163,399.14a33.33,33.33,0,0,0,15.91,3.8h389.2a17,17,0,0,0,0-34H185.92l12.24-24.68a69.7,69.7,0,0,0,5.57-17c0-.09,0-.19.05-.28h309a37.74,37.74,0,0,0,34.46-25.5l-.35,1.17,47.89-156.74v0a27,27,0,0,0,1.23-8A24.08,24.08,0,0,0,589.53,121.34Zm-11,19.62L531,296.54a19.41,19.41,0,0,1-7.12,9.41,19.2,19.2,0,0,1-11.1,4.06H205.52c0-.23,0-.46,0-.69a66.17,66.17,0,0,0-1.48-14.48l-46.5-204.5,413.93,40.1a8.64,8.64,0,0,1,5.65,2.51,7,7,0,0,1,1.87,5A10.27,10.27,0,0,1,578.51,141Z"/></g></g></svg>