<svg xmlns="http://www.w3.org/2000/svg" viewBox="0 0 600 600"><g id="Warstwa_2" data-name="Warstwa 2"><g id="Warstwa_1-2" data-name="Warstwa 1"><path d="M300,0C134.32,0,0,134.32,0,300S134.32,600,300,600,600,465.67,600,300,465.67,0,300,0ZM458.42,437.73l-24,24c-4.29,4.29-16.85,7-17.25,7a283.3,283.3,0,0,1-285.9-286.56s2.75-12.23,7-16.48l24-24c8.79-8.83,25.67-12.82,37.5-8.86l5.06,1.68c11.79,4,24.17,17,27.43,29l12.08,44.34c3.26,12.05-1.13,29.19-9.92,38l-16,16A170.33,170.33,0,0,0,338.2,381.66l16-16c8.83-8.82,26-13.21,38-10l44.35,12.13c12,3.29,25.05,15.6,29,27.39l1.69,5.12C471.17,412.1,467.21,429,458.42,437.73Z"/></g></g></svg>