<svg xmlns="http://www.w3.org/2000/svg" viewBox="0 0 600 600"><g id="Warstwa_2" data-name="Warstwa 2"><g id="Warstwa_1-2" data-name="Warstwa 1"><path d="M254.32,211.63c-27.25,36.84-86.22,109.78-86.22,154.78,0,51.12,42,92.56,93.76,92.56s93.76-41.44,93.76-92.56c0-45-59-117.93-86.23-154.78A9.38,9.38,0,0,0,254.32,211.63Zm-1.55,62.61c-7.79,10.85-20.25,28.46-30.59,46.24-10,17.22-18.19,34.64-18.19,45.93a7.69,7.69,0,0,1-15.38,0c0-14.43,9.11-34.41,20.29-53.62,10.84-18.65,23.49-36.52,31.36-47.5a7.69,7.69,0,1,1,12.51,8.95Z"/><path d="M379.16,141a2.26,2.26,0,0,0-1.91,1c-14,19.77-50.84,64.38-50.84,91.4a52.75,52.75,0,0,0,105.49,0c0-27-36.8-71.64-50.83-91.4A2.29,2.29,0,0,0,379.16,141Zm-1.51,47.59A279.74,279.74,0,0,0,361,215c-4.09,7.62-6.81,14.24-6.81,18.46a7.69,7.69,0,0,1-15.38,0c0-7,3.46-16,8.67-25.72a292.87,292.87,0,0,1,17.6-27.85,7.66,7.66,0,1,1,12.56,8.77Z"/><path d="M300,0C134.31,0,0,134.32,0,300S134.31,600,300,600,600,465.69,600,300,465.68,0,300,0Zm0,569.23C151.31,569.23,30.77,448.69,30.77,300S151.3,30.77,300,30.77,569.23,151.31,569.23,300,448.69,569.23,300,569.23Z"/></g></g></svg>