<svg xmlns="http://www.w3.org/2000/svg" viewBox="0 0 489.93 489.93"><defs><style>.cls-1{fill-rule:evenodd;}</style></defs><g id="Warstwa_2" data-name="Warstwa 2"><g id="Warstwa_1-2" data-name="Warstwa 1"><path class="cls-1" d="M245,0C109.76,0,0,109.76,0,245s109.76,245,245,245,245-109.78,245-245S380.17,0,245,0ZM168.45,205.12q9.88,4.31,9.88,10.65c0,1.76-.83,4.55-2.48,8.42s-3,7.24-4.16,10.11l-17,41.38c-1.55,4.54-4.11,7.73-7.72,9.59a13.85,13.85,0,0,1-5.86,1.08,10.78,10.78,0,0,1-6.88-2.71,14,14,0,0,1-4.39-5.48l-1.24-2.62q-1.26-3.09-9.12-24.09c-1,2.46-2.54,6.51-4.55,12.11s-3.3,9.12-3.86,10.51-.93,2.31-1.09,2.77a15.73,15.73,0,0,1-1.31,2.55,16.07,16.07,0,0,1-2.47,3.25,11.7,11.7,0,0,1-8.48,3.71,12.05,12.05,0,0,1-8-2.71,14.2,14.2,0,0,1-4.33-5.48L62,221.33a25.28,25.28,0,0,1-1.53-6c0-4.11,2.92-7.36,8.8-9.73a22.43,22.43,0,0,1,8-2,8.66,8.66,0,0,1,5,1.32,8.33,8.33,0,0,1,2.69,2.63,13.33,13.33,0,0,1,1.24,2.69q2.63,6.18,11,29l9.11-25a12.06,12.06,0,0,1,3.4-5.41q4.48-4.47,9.12-4.47a12.87,12.87,0,0,1,8,2.47,14.44,14.44,0,0,1,4.55,4.94l1.24,2.62q7.73,21.63,9.12,24.71l9.4-25.63q3.72-9.9,11.13-9.89A14.45,14.45,0,0,1,168.45,205.12Zm125.54,0q9.9,4.31,9.9,10.65c0,1.76-.84,4.55-2.49,8.42s-3,7.24-4.16,10.11l-17,41.38c-1.55,4.54-4.11,7.73-7.72,9.59a13.88,13.88,0,0,1-5.86,1.08,10.76,10.76,0,0,1-6.88-2.71,14,14,0,0,1-4.41-5.48l-1.22-2.62q-1.26-3.09-9.11-24.09c-1,2.46-2.55,6.51-4.56,12.11s-3.3,9.12-3.87,10.51-.92,2.31-1.08,2.77a15.73,15.73,0,0,1-1.31,2.55,16,16,0,0,1-2.46,3.25,11.72,11.72,0,0,1-8.49,3.71,12.07,12.07,0,0,1-8-2.71,14,14,0,0,1-4.33-5.48l-23.32-56.83a25.81,25.81,0,0,1-1.53-6c0-4.11,2.92-7.36,8.8-9.73a22.43,22.43,0,0,1,8-2,8.8,8.8,0,0,1,7.73,4,13.29,13.29,0,0,1,1.23,2.69q2.63,6.18,11,29l9.11-25a12.15,12.15,0,0,1,3.4-5.41q4.49-4.47,9.12-4.47a12.89,12.89,0,0,1,7.95,2.47,14.44,14.44,0,0,1,4.55,4.94l1.25,2.62q7.71,21.63,9.11,24.71l9.41-25.63q3.72-9.9,11.12-9.89A14.34,14.34,0,0,1,294,205.12Zm125.55,0q9.9,4.31,9.9,10.65c0,1.76-.83,4.55-2.49,8.42s-3,7.24-4.16,10.11l-17,41.38c-1.55,4.54-4.11,7.73-7.72,9.59a13.88,13.88,0,0,1-5.86,1.08,10.76,10.76,0,0,1-6.88-2.71,13.85,13.85,0,0,1-4.41-5.48l-1.22-2.62q-1.24-3.09-9.11-24.09c-1,2.46-2.55,6.51-4.56,12.11s-3.3,9.12-3.87,10.51-.91,2.31-1.08,2.77a15.41,15.41,0,0,1-1.3,2.55,16.45,16.45,0,0,1-2.47,3.25,11.73,11.73,0,0,1-8.51,3.71,12.07,12.07,0,0,1-8-2.71,14,14,0,0,1-4.33-5.48l-23.32-56.83a26.26,26.26,0,0,1-1.55-6c0-4.11,3-7.36,8.8-9.73a22.71,22.71,0,0,1,8-2,8.69,8.69,0,0,1,5,1.32,8.93,8.93,0,0,1,2.7,2.63,13.33,13.33,0,0,1,1.24,2.69q2.61,6.18,11,29l9.11-25a12,12,0,0,1,3.39-5.41q4.49-4.47,9.12-4.47a12.89,12.89,0,0,1,7.95,2.47,14.86,14.86,0,0,1,4.55,4.94l1.25,2.62q7.71,21.63,9.09,24.71l9.43-25.63q3.72-9.9,11.12-9.89A14.3,14.3,0,0,1,419.54,205.12Z"/></g></g></svg>