<svg xmlns="http://www.w3.org/2000/svg" viewBox="0 0 294.2 294.2"><g id="Warstwa_2" data-name="Warstwa 2"><g id="Warstwa_1-2" data-name="Warstwa 1"><path d="M147.1,294.2v-16c72.29,0,131.1-58.81,131.1-131.1S219.39,16,147.1,16V0c81.11,0,147.1,66,147.1,147.1S228.21,294.2,147.1,294.2Z"/><path d="M135.32,16.52,133.9.58C138.26.2,142.7,0,147.1,0V16C143.17,16,139.21,16.18,135.32,16.52Z"/><path d="M113.55,290.35a145.66,145.66,0,0,1-24.32-8l6.3-14.7a130,130,0,0,0,21.66,7.1ZM71,273a148.11,148.11,0,0,1-20.65-15.11l10.52-12.05A131.71,131.71,0,0,0,79.3,259.33Zm-35.1-29.61a148.81,148.81,0,0,1-15-20.72l13.72-8.23A131.82,131.82,0,0,0,48,232.92Zm-24.32-39a145.74,145.74,0,0,1-7.88-24.36l15.6-3.57a130,130,0,0,0,7,21.69Zm-11-44.59C.18,155.62,0,151.34,0,147.1s.19-8.6.55-12.85l15.94,1.38c-.32,3.79-.49,7.65-.49,11.47s.16,7.61.49,11.36Zm18.79-42.22L3.73,114a147.56,147.56,0,0,1,7.9-24.35l14.73,6.25A131,131,0,0,0,19.33,117.61ZM34.65,79.67,20.93,71.42a148.1,148.1,0,0,1,15-20.7L48.05,61.21A131.82,131.82,0,0,0,34.65,79.67ZM61,48.28,50.43,36.22A148.16,148.16,0,0,1,71.1,21.13l8.28,13.69A132,132,0,0,0,61,48.28ZM95.62,26.49,89.33,11.78a146.73,146.73,0,0,1,24.34-8l3.62,15.58A131.33,131.33,0,0,0,95.62,26.49Z"/><path d="M147.1,294.2c-4.4,0-8.84-.2-13.2-.59l1.42-15.93c3.89.34,7.85.52,11.78.52Z"/><path d="M140.17,203.49,84.94,148.26a9,9,0,1,1,12.73-12.73l40.55,40.56,62-82.63a9,9,0,0,1,14.4,10.8Z"/></g></g></svg>